<?xml version="1.0" encoding="UTF-8"?>
<svg id="Layer_1" data-name="Layer 1" xmlns="http://www.w3.org/2000/svg" viewBox="0 0 510.46 512.09">
  <defs>
    <style>
      .cls-1 {
        fill: #142e62;
      }

      .cls-2 {
        fill: #dfaa1e;
      }
    </style>
  </defs>
  <g id="Admition">
    <path class="cls-1" d="m377.28,37.52c-3.89,0-6.52-.03-9.15,0-49.42.67-98.84,1.41-148.26,1.96-9.87.11-15.81-5.45-17.73-15.63-1.48-7.83,3.05-18.76,9.75-22.66,1.7-.99,3.96-.95,5.97-.95,69.94.02,139.89-.88,209.8.68,24.31.54,45.5,13.33,59.15,38.78,10.2,19.02,16.36,39.43,15.96,62.13-.2,11.1-5.92,17.42-15.45,17.31-30.74-.37-61.48-.51-92.22-1.09-6.53-.12-8.52,2.37-8.48,10.06.46,95.34,1.02,190.68.71,286.02-.12,36.68-11.9,67.63-39.49,88.21-8.68,6.47-18.09,9.7-28.85,9.65-80.42-.38-160.84-.53-241.25.01-21.49.15-37.44-10.96-50.71-28.63-15.87-21.13-22.53-46.11-20.55-74.17.62-8.76,6.49-14.62,15.04-14.57,55.12.35,110.24.82,165.36,1.01,22.09.08,44.24.47,66.27-1.04,11.89-.82,19.78,10.19,19.09,22.45-1.19,21.04,5.85,38.33,21.06,50.33,18.43,14.54,40.71,10.14,54.57-10.54,7.92-11.82,11.99-25.03,11.98-40.37-.05-101.7.04-203.41.48-305.11.1-23.2,4.14-45.69,14.2-66.22.87-1.78,1.39-3.81,2.74-7.62Z"/>
    <path class="cls-2" d="m168.4,159.68c.26,3.17.59,5.43.62,7.69.56,53.99,1.09,107.98,1.63,161.97.02,1.59.3,3.26-.03,4.75-.52,2.41-1.44,4.7-2.19,7.04-2.08-1.24-4.8-1.88-6.14-3.82-7.95-11.56-15.54-23.47-23.33-35.18-6.51-9.77-6.58-9.74-13.15-.26-7.99,11.54-15.87,23.19-24,34.61-1.4,1.96-3.77,2.99-5.69,4.45-1.13-2.62-3.26-5.26-3.22-7.85.26-16.41,1.39-32.8,1.49-49.21.22-37.59.02-75.18,0-112.77,0-2.38-.13-4.8.15-7.14.5-4.15,2.74-5.75,5.79-3.43,21.44,16.37,42.82,14.19,64.27.13.74-.48,1.71-.47,3.79-.99Z"/>
    <path class="cls-2" d="m181.9,66.3c-.26,32.74-7.74,53.12-26.78,67.17-20.49,15.12-49.85,6.57-63.4-19.63-15.13-29.28-12.65-67.69,7.15-92.89,20.65-26.28,52.37-23.02,70.56,5.95,8.72,13.89,13.05,29.57,12.47,39.41Z"/>
    <path class="cls-2" d="m268.37,145c-17.5,0-35.01-.13-52.51.07-6.26.07-10.65-2.99-12.95-9.42-2.21-6.18-2.21-12.84,2.06-17.8,2.31-2.68,6.07-5.17,9.2-5.2,35.48-.34,70.97-.27,106.45-.12,8.15.03,12.94,6.12,13.04,15.58.09,9.41-5.18,15.9-13.45,15.96-17.27.14-34.55.04-51.83.04,0,.29,0,.59,0,.88Z"/>
    <path class="cls-2" d="m267.44,256.24c-17.27,0-34.55.21-51.82-.08-10.16-.17-13.61-4.65-13.48-16,.11-9.97,4.72-15.54,13.64-15.52,35,.08,69.99.32,104.99.66,7.68.07,12.68,6.84,12.53,16.14-.13,8.36-5.02,14.09-12.68,14.16-17.73.16-35.46.05-53.18.05,0,.19,0,.39,0,.58Z"/>
    <path class="cls-2" d="m268.14,168.79c16.83,0,33.65-.12,50.48.06,6.44.07,11.62,3.35,13.65,10.82,1.91,7.02-.04,13.25-5.15,17.5-2.05,1.7-4.98,2.71-7.52,2.73-34.11.37-68.23.56-102.34.67-9.25.03-15.11-6.38-15.2-16.08-.09-9.76,6.17-16.59,15.61-16.65,16.82-.11,33.65-.03,50.47-.03,0,.33,0,.66,0,.99Z"/>
  </g>
</svg>