<?xml version="1.0" encoding="UTF-8"?>
<svg id="Layer_1" data-name="Layer 1" xmlns="http://www.w3.org/2000/svg" viewBox="0 0 509.69 512.09">
  <defs>
    <style>
      .cls-1 {
        fill: #dfaa1e;
      }

      .cls-2 {
        fill: none;
        stroke: #142e62;
        stroke-miterlimit: 10;
        stroke-width: 10px;
      }
    </style>
  </defs>
  <rect class="cls-2" x="77.52" y="8.28" width="352.34" height="496.69" rx="40.4" ry="40.4"/>
  <g>
    <g>
      <path class="cls-1" d="m160.23,95.71c-8.31,0-16.63.04-24.94-.01-5.49-.03-6.67-1.23-6.68-6.82-.04-15.13.06-30.26-.06-45.39-.04-4.69,1.97-6.6,6.59-6.58,16.96.09,33.92.1,50.88,0,4.72-.03,6.49,2.06,6.45,6.67-.13,15.13-.02,30.26-.06,45.39-.02,5.64-1.1,6.69-6.73,6.72-8.48.05-16.96.01-25.44.01Zm23.54-49.99h-46.34v41.44h46.34v-41.44Z"/>
      <path class="cls-1" d="m263.88,58.42c-14.95,0-29.91,0-44.86,0-1.33,0-2.99.42-3.91-.21-1.56-1.06-3.45-2.7-3.68-4.31-.16-1.11,2.07-2.89,3.57-3.81.99-.6,2.59-.23,3.92-.23,30.24,0,60.48-.02,90.73.01,3.39,0,8-.8,8.05,4.21.05,4.99-4.5,4.32-7.94,4.33-15.29.03-30.57.01-45.86.01Z"/>
      <path class="cls-1" d="m264.9,74.41c7.13,0,14.26.04,21.39-.02,3.13-.02,6,.64,5.93,4.32-.06,3.32-2.74,4.07-5.71,4.06-14.75-.04-29.51-.03-44.26,0-2.94,0-5.63-.68-5.67-4.07-.04-3.74,2.84-4.32,5.94-4.3,7.46.04,14.92.01,22.38.01Z"/>
      <path class="cls-1" d="m155.22,69.21c4.39-4.47,8.67-8.81,12.92-13.17,2.12-2.17,4.42-4.02,7.19-1.26,2.81,2.8.78,5.1-1.31,7.2-4.92,4.93-9.93,9.77-14.74,14.81-3.1,3.25-5.83,3.25-8.76-.11-1.41-1.62-3.54-2.83-4.39-4.67-.81-1.74-.37-4.05-.47-6.11,2.06.09,4.18-.1,6.14.37,1.12.27,1.97,1.64,3.42,2.94Z"/>
    </g>
    <path class="cls-1" d="m267.24,451.16c1.45-8.64,7.02-14.04,13.78-19.06,20.87-15.49,41.44-31.37,62.09-47.15,1.83-1.4,3.39-3.14,5.06-4.74,28.16-27.18,50.72-58.88,73.33-90.55,1.97-2.75,5.31-4.52,8.02-6.75,3.32,0,6.64,0,9.96,0,16.67,3.3,29.98,11.97,40.05,25.53,7.7,10.37,12.9,21.74,10.75,35.07-.44,2.74-2.3,5.96-4.51,7.6-18.9,14.02-38.1,27.62-57.04,41.59-4.59,3.38-8.52,7.66-12.16,10.97,7.32,6.64,14.76,12.42,20.98,19.29,7.05,7.8,10.16,17.68,11.14,28.16.28,3.01-.41,5.55-3.73,5.91-3.33.37-4.5-1.96-4.86-4.98-2.31-19.59-13.74-32.16-32.24-41.07,1.4,2.52,2.1,3.86,2.88,5.17,13.38,22.49,15,45.15,1.05,68.07-1.72,2.82-3.55,5.89-7.31,3.71-3.75-2.17-1.78-5.14-.45-8.15,2.85-6.46,6.02-12.93,7.72-19.73,3.15-12.6-1.54-30.04-10.37-41.24-5.95,6.18-12.46,11.81-17.6,18.5-15.25,19.83-29.97,40.08-44.88,60.18-6.43,8.66-15.97,11.98-26.43,7.48-22.13-9.52-38.76-24.49-44.75-48.97-.08-.31-.32-.57-.49-.86,0-1.33,0-2.65,0-3.98Zm117.69-96.38c14.53,7.84,26.98,18.04,34.28,33.76,20.36-14.75,40.39-29.16,60.22-43.83,1.6-1.19,2.66-4.18,2.63-6.32-.11-8.55-3.42-16.15-8.41-22.94-9.47-12.88-21.24-22.19-37.93-23.57-3.46-.29-5.7.77-7.83,3.75-14.07,19.65-28.38,39.14-42.96,59.17Zm-44.44,125.13c15.27-20.28,30.16-40.07,45.2-60.05-8.51-12.88-19.53-23.32-32.07-31.81-20.12,15.36-39.79,30.37-59.82,45.67,24.08,7.1,38.76,22.69,46.69,46.2Zm-35.35-31.6l-.46-1.84c-5.51-1.42-10.95-3.54-16.55-4.11-8.26-.84-13.41,5.3-11.55,13.44,3.02,13.26,11.65,22.86,22.06,30.82,1.77,1.35,5.99.87,8.25-.33,1.27-.67,1.6-4.73,1.05-6.94-1.55-6.25-5.97-10.48-11.32-13.85-4.34-2.73-4.61-4.97-.94-8.59,3.03-2.99,6.3-5.75,9.47-8.61Zm6.39,47.8c3.82.59,7.65,1.71,11.46,1.64,5.37-.1,10.34-5.39,9.73-9.86-1.95-14.28-9.13-25.59-20.32-35.22-2.52,2.71-4.84,5.21-7.16,7.72,14.87,13.71,15.45,27.69,6.29,35.72Z"/>
    <g>
      <path class="cls-1" d="m160.23,185.85c-8.31,0-16.63.04-24.94-.01-5.49-.03-6.67-1.23-6.68-6.82-.04-15.13.06-30.26-.06-45.39-.04-4.69,1.97-6.6,6.59-6.58,16.96.09,33.92.1,50.88,0,4.72-.03,6.49,2.06,6.45,6.67-.13,15.13-.02,30.26-.06,45.39-.02,5.64-1.1,6.69-6.73,6.72-8.48.05-16.96.01-25.44.01Zm23.54-49.99h-46.34v41.44h46.34v-41.44Z"/>
      <path class="cls-1" d="m263.88,148.56c-14.95,0-29.91,0-44.86,0-1.33,0-2.99.42-3.91-.21-1.56-1.06-3.45-2.7-3.68-4.31-.16-1.11,2.07-2.89,3.57-3.81.99-.6,2.59-.23,3.92-.23,30.24,0,60.48-.02,90.73.01,3.39,0,8-.8,8.05,4.21.05,4.99-4.5,4.32-7.94,4.33-15.29.03-30.57.01-45.86.01Z"/>
      <path class="cls-1" d="m264.9,164.55c7.13,0,14.26.04,21.39-.02,3.13-.02,6,.64,5.93,4.32-.06,3.32-2.74,4.07-5.71,4.06-14.75-.04-29.51-.03-44.26,0-2.94,0-5.63-.68-5.67-4.07-.04-3.74,2.84-4.32,5.94-4.3,7.46.04,14.92.01,22.38.01Z"/>
      <path class="cls-1" d="m155.22,159.35c4.39-4.47,8.67-8.81,12.92-13.17,2.12-2.17,4.42-4.02,7.19-1.26,2.81,2.8.78,5.1-1.31,7.2-4.92,4.93-9.93,9.77-14.74,14.81-3.1,3.25-5.83,3.25-8.76-.11-1.41-1.62-3.54-2.83-4.39-4.67-.81-1.74-.37-4.05-.47-6.11,2.06.09,4.18-.1,6.14.37,1.12.27,1.97,1.64,3.42,2.94Z"/>
    </g>
    <g>
      <path class="cls-1" d="m160.23,359.32c-8.31,0-16.63.04-24.94-.01-5.49-.03-6.67-1.23-6.68-6.82-.04-15.13.06-30.26-.06-45.39-.04-4.69,1.97-6.6,6.59-6.58,16.96.09,33.92.1,50.88,0,4.72-.03,6.49,2.06,6.45,6.67-.13,15.13-.02,30.26-.06,45.39-.02,5.64-1.1,6.69-6.73,6.72-8.48.05-16.96.01-25.44.01Zm23.54-49.99h-46.34v41.44h46.34v-41.44Z"/>
      <path class="cls-1" d="m263.88,322.03c-14.95,0-29.91,0-44.86,0-1.33,0-2.99.42-3.91-.21-1.56-1.06-3.45-2.7-3.68-4.31-.16-1.11,2.07-2.89,3.57-3.81.99-.6,2.59-.23,3.92-.23,30.24,0,60.48-.02,90.73.01,3.39,0,8-.8,8.05,4.21.05,4.99-4.5,4.32-7.94,4.33-15.29.03-30.57.01-45.86.01Z"/>
      <path class="cls-1" d="m264.9,338.02c7.13,0,14.26.04,21.39-.02,3.13-.02,6,.64,5.93,4.32-.06,3.32-2.74,4.07-5.71,4.06-14.75-.04-29.51-.03-44.26,0-2.94,0-5.63-.68-5.67-4.07-.04-3.74,2.84-4.32,5.94-4.3,7.46.04,14.92.01,22.38.01Z"/>
      <path class="cls-1" d="m155.22,332.82c4.39-4.47,8.67-8.81,12.92-13.17,2.12-2.17,4.42-4.02,7.19-1.26,2.81,2.8.78,5.1-1.31,7.2-4.92,4.93-9.93,9.77-14.74,14.81-3.1,3.25-5.83,3.25-8.76-.11-1.41-1.62-3.54-2.83-4.39-4.67-.81-1.74-.37-4.05-.47-6.11,2.06.09,4.18-.1,6.14.37,1.12.27,1.97,1.64,3.42,2.94Z"/>
    </g>
    <g>
      <path class="cls-1" d="m160.23,271.86c-8.31,0-16.63.04-24.94-.01-5.49-.03-6.67-1.23-6.68-6.82-.04-15.13.06-30.26-.06-45.39-.04-4.69,1.97-6.6,6.59-6.58,16.96.09,33.92.1,50.88,0,4.72-.03,6.49,2.06,6.45,6.67-.13,15.13-.02,30.26-.06,45.39-.02,5.64-1.1,6.69-6.73,6.72-8.48.05-16.96.01-25.44.01Zm23.54-49.99h-46.34v41.44h46.34v-41.44Z"/>
      <path class="cls-1" d="m263.88,234.57c-14.95,0-29.91,0-44.86,0-1.33,0-2.99.42-3.91-.21-1.56-1.06-3.45-2.7-3.68-4.31-.16-1.11,2.07-2.89,3.57-3.81.99-.6,2.59-.23,3.92-.23,30.24,0,60.48-.02,90.73.01,3.39,0,8-.8,8.05,4.21.05,4.99-4.5,4.32-7.94,4.33-15.29.03-30.57.01-45.86.01Z"/>
      <path class="cls-1" d="m264.9,250.55c7.13,0,14.26.04,21.39-.02,3.13-.02,6,.64,5.93,4.32-.06,3.32-2.74,4.07-5.71,4.06-14.75-.04-29.51-.03-44.26,0-2.94,0-5.63-.68-5.67-4.07-.04-3.74,2.84-4.32,5.94-4.3,7.46.04,14.92.01,22.38.01Z"/>
      <path class="cls-1" d="m155.22,245.36c4.39-4.47,8.67-8.81,12.92-13.17,2.12-2.17,4.42-4.02,7.19-1.26,2.81,2.8.78,5.1-1.31,7.2-4.92,4.93-9.93,9.77-14.74,14.81-3.1,3.25-5.83,3.25-8.76-.11-1.41-1.62-3.54-2.83-4.39-4.67-.81-1.74-.37-4.05-.47-6.11,2.06.09,4.18-.1,6.14.37,1.12.27,1.97,1.64,3.42,2.94Z"/>
    </g>
  </g>
</svg>