<?xml version="1.0" encoding="UTF-8"?>
<svg id="Layer_1" data-name="Layer 1" xmlns="http://www.w3.org/2000/svg" viewBox="0 0 510.46 512.09">
  <defs>
    <style>
      .cls-1 {
        fill: #142e62;
      }

      .cls-2 {
        fill: #dfaa1e;
      }
    </style>
  </defs>
  <g id="docoments">
    <path class="cls-1" d="m96.55,33.11C103.09,13.02,116.91,1.93,134.84,1.54c15.11-.33,32.44,7.43,39.92,31.55,2.76,0,5.81,0,8.85,0,32.56,0,65.13.06,97.69-.04,6.66-.02,12.64.74,17.75,5.89,1.78,1.8,5.58,2.2,8.46,2.22,28.17.15,56.34.08,84.51.1,17.34,0,21.89,4.61,21.94,22.11,0,2.81,0,5.63,0,9.61,5.06,0,9.61-.07,14.15.01,11.5.21,17.2,5.79,17.2,17.12.03,134.35.03,268.71,0,403.06,0,10.98-6.22,17.25-17.31,17.26-102.08.05-204.16.05-306.24,0-10.3,0-17.33-7.01-17.83-17.42-.22-4.6-.04-9.23-.04-14.88-3.59,0-6.59,0-9.59,0-17.26-.03-21.66-4.37-21.66-21.34,0-44.96,0-89.91,0-134.87,0-12.92-.04-25.84.01-38.76.03-7.08.95-13.97-5.81-19.55-2.52-2.08-3.09-7.56-3.1-11.49-.18-66.66-.16-133.32-.1-199.98.01-11.96,6.8-18.75,18.62-19.02,4.63-.1,9.27-.02,14.3-.02Zm301.41,357.93V57.08h-95.3v9.76c0,60.97,0,121.94,0,182.91,0,16.63-5.08,21.72-21.73,21.73-60.99,0-121.97,0-182.96,0-3.03,0-6.06,0-9.54,0v190.5h238.69c0-17.32-.02-34.06,0-50.81.03-14.98,5.1-20.11,19.92-20.14,16.77-.03,33.53,0,50.92,0ZM286.42,48.62c-3.62,0-6.66,0-9.7,0-46.02,0-92.03-.02-138.05.03-5.53,0-10.27-1.36-10.23-7.73.04-6.29,4.79-7.86,10.28-7.82,6.1.04,12.19,0,19.46,0-1.56-3.27-2.21-5.52-3.54-7.25-5.56-7.22-16.74-10.52-25.93-7.9-8.6,2.45-16.47,11.25-17.07,20.1-.55,7.98-.33,16.01-.34,24.02-.03,19.38-.17,38.77.1,58.15.17,12.46,9.33,22.54,21.05,24.02,12.61,1.59,24.38-5.5,26.21-18.43,1.79-12.67,1.05-25.77.4-38.63-.11-2.27-5.29-6.03-7.98-5.91-2.45.11-6.07,4.27-6.73,7.19-1.17,5.18.47,11.05-.94,16.1-.84,3.03-5.02,6.5-8.14,7.01-1.9.31-6.01-4.35-6.71-7.34-1.15-4.9-.45-10.27-.31-15.43.36-13.68,10.35-23.72,23.43-23.7,12.79.03,23.42,10.48,23.69,23.71.22,11.11.31,22.24-.06,33.34-.68,20.44-18.42,37.36-38.75,37.88-17.99.46-40.76-13.53-40.35-41.69.29-20.41.07-40.84.03-61.25,0-2.71-.3-5.42-.44-7.84h-16.03v206.25h206.66V48.62Zm127.54,40.27c0,21.82,0,42.72,0,63.63,0,78.3.16,156.6-.27,234.9-.04,7-1.85,15.86-6.29,20.66-19.26,20.79-39.94,40.25-59.81,60.49-7.06,7.2-15.1,9.73-25.03,9.69-64.36-.25-128.72-.13-193.08-.13-3.02,0-6.05,0-9.8,0,0,3.4-.05,5.93.01,8.45.06,2.48.24,4.96.37,7.38h310.24V88.89h-16.35Zm-29.05,318.19h-42.08v43.19c14.71-15.1,28.52-29.27,42.08-43.19Z"/>
    <path class="cls-2" d="m270.97,350.88c-27.87,0-55.74-.07-83.61.06-5.72.03-10.97-.81-11.06-7.61-.09-6.7,4.96-8.04,10.79-8.04,55.74.07,111.48.07,167.22,0,6,0,11.51.88,11.37,8.14-.13,6.74-5.35,7.56-11.1,7.53-27.87-.16-55.74-.07-83.61-.07Z"/>
    <path class="cls-2" d="m271.39,295.77c27.91,0,55.83.02,83.74-.02,4.59,0,9.18.05,10.22,5.8.8,4.45-.33,8.33-5.53,9.26-2.52.45-5.15.37-7.73.37-54.28.02-108.55.01-162.83,0-1.55,0-3.1-.01-4.65-.06-5.23-.15-9.14-3.05-8.09-7.98.62-2.9,4.98-6.61,8.08-7.04,7.35-1.04,14.94-.35,22.44-.35,21.45,0,42.9,0,64.36,0Z"/>
    <path class="cls-2" d="m238.34,390.82c-17.03,0-34.05-.09-51.08.05-5.8.05-10.9-1.2-10.96-7.87-.06-6.77,5.06-7.82,10.85-7.8,34.57.11,69.14.06,103.71.06.77,0,1.55,0,2.32.02,4.92.11,8.98,1.93,9.25,7.27.3,5.89-4.02,8.12-9.15,8.19-13.93.2-27.86.09-41.79.1-4.39,0-8.77,0-13.16,0Z"/>
    <path class="cls-2" d="m350.56,159.89c-2.82,0-6.18.96-8.33-.24-2.93-1.63-6.47-4.71-6.85-7.56-.28-2.15,3.69-6.58,6.28-7.04,5.95-1.05,12.37-1.03,18.3.11,2.36.45,5.57,5.08,5.42,7.63-.15,2.49-3.71,5.5-6.47,6.9-2.24,1.14-5.53.23-8.35.23,0-.01,0-.02,0-.04Z"/>
    <path class="cls-2" d="m350.08,239.4c-2.56,0-5.63.89-7.56-.21-2.96-1.68-7.07-4.7-7.11-7.22-.04-2.53,3.92-6.73,6.77-7.37,5.36-1.2,11.37-1.21,16.73-.03,2.74.61,6.51,4.92,6.45,7.48-.06,2.51-4.01,5.62-6.95,7.15-2.21,1.15-5.51.23-8.33.23,0-.01,0-.03,0-.04Z"/>
    <path class="cls-2" d="m135.01,350.81c-11.66.07-14.82-1.58-14.28-7.96.8-9.55,8.36-7.14,14.17-7.47,3.08-.17,6.72-.88,9.14.43,2.91,1.58,6.69,5.12,6.59,7.67-.1,2.53-4.21,5.58-7.22,7.1-2.26,1.14-5.56.23-8.4.23Z"/>
    <path class="cls-2" d="m135.84,390.54c-3.09,0-6.73,1.02-9.12-.27-2.62-1.41-5.68-5-5.61-7.57.07-2.5,3.49-6.41,6.07-7.01,4.9-1.15,10.45-1.27,15.33-.11,3.24.77,7.52,4.06,8.25,6.99,1.27,5.11-3,7.69-7.96,8.16-2.3.22-4.64.04-6.96.04,0-.08,0-.15,0-.23Z"/>
    <path class="cls-2" d="m350.8,199.73c-2.82,0-6.25,1.01-8.3-.24-3.05-1.85-5.11-5.31-7.6-8.08,2.67-2.32,5.04-5.94,8.08-6.65,4.87-1.12,10.38-1.14,15.24,0,2.92.68,6.67,4.11,7.27,6.9.9,4.18-1.87,7.84-7,8.1-2.55.13-5.12.02-7.68.02,0-.02,0-.04,0-.05Z"/>
    <path class="cls-2" d="m135.01,310.96c-11.47.22-14.84-1.56-14.3-7.84.83-9.63,8.43-6.94,14.19-7.31,3.07-.2,6.59-.84,9.15.34,2.82,1.3,6.81,4.69,6.6,6.79-.29,2.86-3.63,6.21-6.51,7.76-2.4,1.28-6.03.26-9.12.26Z"/>
    <path class="cls-2" d="m350.71,120.1c-2.58,0-5.69.91-7.63-.21-3.14-1.81-5.51-4.95-8.2-7.53,2.55-2.46,4.78-6.4,7.74-7.07,5.16-1.16,10.97-1.17,16.12.04,2.8.66,6.66,4.85,6.6,7.37-.06,2.52-4.07,5.53-6.99,7.19-1.96,1.11-5.05.21-7.63.21Z"/>
    <path class="cls-2" d="m183.74,184.42c19.86,0,39.71.05,59.57-.03,5.61-.02,11.08.74,11.15,7.57.07,6.71-5.28,7.98-10.91,7.98-39.97,0-79.94-.01-119.92,0-5.19,0-10.05-.75-11.69-6.63-1.3-4.66,3.27-8.82,9.9-8.85,20.63-.11,41.26-.04,61.89-.05Z"/>
    <path class="cls-2" d="m227.14,159.98c-6.44,0-12.89,0-19.33,0-5.18,0-8.24-3.31-7.45-7.69.52-2.9,4.33-7.24,6.88-7.39,13.1-.76,26.29-.82,39.39-.03,2.82.17,5.36,4.89,8.02,7.51-2.73,2.53-5.15,6.68-8.24,7.25-6.23,1.14-12.82.34-19.27.35Z"/>
    <path class="cls-2" d="m226.51,120.13c-6.17,0-12.35-.03-18.52.01-5.11.03-7.84-2.87-7.87-7.54-.03-4.66,2.68-7.67,7.76-7.68,12.86-.02,25.75-.45,38.56.34,2.88.18,5.49,4.7,8.22,7.23-2.7,2.54-5.1,6.76-8.15,7.29-6.49,1.13-13.32.34-20,.35Z"/>
  </g>
</svg>