<?xml version="1.0" encoding="UTF-8"?>
<svg id="Layer_1" data-name="Layer 1" xmlns="http://www.w3.org/2000/svg" viewBox="0 0 509.69 512.09">
  <defs>
    <style>
      .cls-1 {
        font-family: ComicSansMS-Bold, 'Comic Sans MS';
        font-size: 82.69px;
        font-weight: 700;
      }

      .cls-1, .cls-2 {
        fill: #dfaa1e;
      }

      .cls-3 {
        fill: #142e62;
      }
    </style>
  </defs>
  <g id="Fee">
    <path class="cls-3" d="m443.67,239.5c0,67.72-.17,135.44.13,203.16.06,14.29-40.43,50.9-51.9,58.4-4.25,2.78,1.05-5.61-1.43-9.33-2.63-3.94-11.14-.05-7.63-3.12,1.23-1.08,38.05-31.47,39.2-32.64,5.21-5.31,5.03-5.68,6.37-11.94-.18-19.84-.06-39.69-.06-59.53,0-115.78-.12-231.56.18-347.34.03-12.2-6.26-21.97-22-21.91-102.1.39-204.21.2-306.32.2-14.98,0-21.27,6.25-21.28,21.14,0,16.2.01,156.03-.01,172.23,0,6.79-2.78-1.79-7.84-1.96-4.82-.16-7.46-1.7-7.47-8.1-.03-17.29-.11-148.04.02-165.34C63.79,14.38,77.74.18,96.74.17c104.65-.09,209.31-.09,313.96,0,19.16.02,32.92,14.37,32.94,33.98.06,68.45.02,136.9.03,205.35Z"/>
    <path class="cls-3" d="m132.02,494.55c17.64-13.61,34.91-26.94,52.2-40.25,7.97-6.13,9.26-6.1,17-.11,16.13,12.46,32.36,24.77,48.34,37.41,3.3,2.61,5.29,2.13,8.29-.22,16.03-12.58,32.22-24.96,48.36-37.4,7.36-5.68,8.94-5.68,16.14-.14,16.14,12.44,32.29,24.87,48.44,37.29,1.42,1.09,2.9,2.12,4.51,3.29,3.21-2.45,6.16-4.87,9.27-7.06,4.21-2.97,8.46-2.48,11.11,1.07,2.58,3.46,1.93,7.96-1.88,11.1-3.93,3.23-8.03,6.27-12.1,9.34-5.36,4.04-7.79,4.05-13.12-.05-16.44-12.64-32.86-25.32-49.29-37.98-1.57-1.21-3.19-2.38-4.99-3.72-16.28,12.55-32.4,24.98-48.52,37.41-1.73,1.33-3.46,2.66-5.2,3.98-5.96,4.51-8.11,4.5-13.98-.01-16.29-12.55-32.58-25.09-48.87-37.63-1.56-1.2-3.14-2.39-4.97-3.78-14.44,11.13-28.69,22.11-42.94,33.09-4.04,3.11-8.09,6.19-12.11,9.33-3.82,2.98-7.5,3.03-11.4.01-16.96-13.16-34.02-26.2-50.96-39.38-8.17-6.36-11.78-14.89-11.78-25.22.05-84.28.02-168.55.03-252.83,0-6.9,2.57-10.37,7.62-10.44,5.04-.07,7.69,3.42,7.69,10.31,0,83.37.08,166.73-.12,250.1-.02,8.08,2.58,13.72,9.07,18.52,14.76,10.92,29.14,22.36,44.15,33.96Z"/>
    <path class="cls-3" d="m253.75,143.48c38.57.19,69.79,31.51,69.71,69.93-.09,38.41-31.67,69.87-69.96,69.7-38.69-.17-69.86-31.73-69.67-70.54.18-38.07,31.77-69.28,69.93-69.09Zm.16,15.56c-30.06,0-54.48,24.44-54.51,54.54-.03,29.53,24.78,54.06,54.54,53.92,29.51-.13,53.75-24.39,53.93-53.96.18-29.67-24.41-54.5-53.96-54.5Z"/>
    <path class="cls-2" d="m193.53,307.27c20.19,0,40.38,0,60.57,0,1.63,0,3.32-.16,4.89.18,4.08.88,6.4,3.62,6.29,7.74-.1,3.85-2.42,6.43-6.26,7.23-1.58.33-3.26.19-4.89.19-40.56,0-81.13,0-121.69,0-.91,0-1.82.03-2.73-.02-4.95-.28-8.21-3.33-8.23-7.64-.01-4.31,3.25-7.57,8.19-7.64,10-.14,20.01-.05,30.01-.05,11.28,0,22.56,0,33.83,0Z"/>
    <path class="cls-2" d="m193.56,363.96c-20.19,0-40.38.02-60.57-.03-2.15,0-4.96.32-6.31-.84-2.22-1.91-4.57-4.77-4.92-7.48-.47-3.71,2.33-6.33,6.29-6.88,1.61-.22,3.27-.14,4.9-.14,40.38,0,80.76,0,121.14,0,1.64,0,3.74-.54,4.81.26,2.41,1.8,5.74,4.13,6.01,6.54.26,2.4-2.35,5.62-4.5,7.6-1.3,1.19-4.14.93-6.28.94-20.19.06-40.38.04-60.57.04Z"/>
    <path class="cls-2" d="m193.61,404.95c-20.01,0-40.01,0-60.02,0-1.82,0-3.65.06-5.45-.16-3.97-.5-6.28-2.96-6.58-6.83-.32-4.16,1.82-6.99,5.93-7.93,1.92-.44,3.97-.45,5.96-.45,39.83-.02,79.66-.02,119.49-.01,8.6,0,12.6,2.58,12.45,7.98-.14,5.17-3.84,7.41-12.3,7.41-19.82,0-39.65,0-59.47,0Z"/>
    <path class="cls-2" d="m346.3,348.58c10.19,0,20.38-.06,30.57.02,5.62.04,8.84,2.83,8.93,7.4.08,4.48-3.26,7.85-8.62,7.88-20.75.13-41.49.13-62.24,0-5.34-.03-8.77-3.43-8.71-7.84.06-4.42,3.51-7.4,8.94-7.44,10.37-.08,20.75-.02,31.12-.02Z"/>
    <path class="cls-2" d="m346.49,307.27c10.01,0,20.02-.05,30.03.02,5.83.04,9.29,3,9.27,7.69-.02,4.66-3.52,7.61-9.34,7.63-20.2.05-40.41.04-60.61,0-5.86-.01-9.43-2.86-9.59-7.43-.17-4.76,3.56-7.87,9.66-7.9,10.19-.05,20.38-.01,30.58-.01Z"/>
    <path class="cls-2" d="m346.2,404.94c-10.19,0-20.38.06-30.57-.02-5.89-.04-9.39-2.97-9.4-7.57,0-4.56,3.53-7.72,9.36-7.75,20.38-.1,40.76-.11,61.13,0,5.8.03,9.22,3.32,9.06,7.98-.15,4.51-3.4,7.27-9.03,7.32-10.19.09-20.38.03-30.57.03Z"/>
    <path class="cls-2" d="m261.77,183.52c1.68.15,3.12.15,4.51.41,4.45.83,7.36,3.26,7.24,8.07-.12,4.77-2.94,7.31-7.59,7.6-3.99.25-8,.28-11.99.16-3.85-.12-5.48,1.2-3.85,5.72,3.23,0,6.65-.12,10.05.02,7.57.31,12.95,5.56,13.39,13.06.19,3.26.08,6.54.07,9.81-.03,6.33-3.23,10.45-8.76,13.28-1.48.76-3.06,2.81-3.21,4.4-.66,7.01-2.88,10.17-7.96,10.19-5.12.02-7.65-3.23-7.88-10.13-.03-.89-.11-1.77-.18-2.95-1.58-.21-2.98-.34-4.36-.58-4.7-.81-7.75-3.27-7.48-8.38.27-5.15,3.69-7.24,8.38-7.49,3.81-.2,7.64-.22,11.45-.04,3.71.18,5.08-1.2,3.72-5.54-3.14,0-6.54.12-9.93-.03-7.84-.35-13.28-5.69-13.65-13.45-.17-3.44-.1-6.91,0-10.36.16-5.65,2.95-9.87,8.07-11.89,3.05-1.2,4.15-2.55,4.09-5.82-.11-6,2.7-9.19,7.49-9.33,5.02-.15,7.87,3.15,8.12,9.36.05,1.23.17,2.47.28,3.88Z"/>
    <text class="cls-1" transform="translate(121.5 104.9)"><tspan x="0" y="0">Challan</tspan></text>
  </g>
</svg>