<?xml version="1.0" encoding="UTF-8"?>
<svg id="Layer_1" data-name="Layer 1" xmlns="http://www.w3.org/2000/svg" viewBox="0 0 509.69 511.98">
  <defs>
    <style>
      .cls-1 {
        stroke: #dfaa1e;
        stroke-width: 7px;
      }

      .cls-1, .cls-2 {
        fill: none;
        stroke-miterlimit: 10;
      }

      .cls-2 {
        stroke: #142e62;
        stroke-width: 10px;
      }
    </style>
  </defs>
  <g id="Forms">
    <path class="cls-1" d="m251.39,347.25c-37,0-74,0-111.01,0-2.6,0-5.29.27-7.8-.26-6.68-1.4-10.55-5.56-10.35-12.6.2-7,4.08-11.03,10.97-11.98,2.31-.32,4.68-.16,7.03-.16,74,0,148.01,0,222.01,0,2.34,0,4.71-.11,7.03.18,6.39.8,11.1,5.96,10.92,12.19-.19,6.52-3.74,10.74-10.01,12.28-2.47.61-5.18.34-7.78.34-37,.02-74,.01-111.01.01Z"/>
    <path class="cls-1" d="m251.41,214.06c-37.26,0-74.52.03-111.78-.06-3.32,0-6.85-.22-9.92-1.34-5.92-2.16-8.18-7.05-7.37-13.13.77-5.81,4.27-9.39,10.1-10.29,2.56-.4,5.19-.36,7.8-.36,74-.02,148-.01,222,0,2.08,0,4.18-.02,6.25.2,7.03.76,11.91,5.7,11.72,12.22-.2,6.93-4.16,11.06-10.77,12.46-2.51.53-5.19.29-7.79.29-36.74.01-73.48,0-110.22,0Z"/>
    <path class="cls-1" d="m251.53,255.32c37,0,74-.03,111,.05,3.33,0,6.86.21,9.93,1.33,5.47,1.99,8.21,6.52,7.65,12.28-.58,6.01-3.95,10.16-10.22,11.12-2.81.43-5.71.41-8.57.41-73.48.02-146.96.02-220.44.01-13.29,0-18.63-3.56-18.7-12.35-.07-9,5.64-12.84,19.13-12.85,36.74,0,73.48,0,110.22,0Z"/>
    <path class="cls-1" d="m148.35,102.2c-9.35-8.45-7.72-19.18-7.18-29.48.49-9.29,8.03-16.28,17.37-17.04,9.34-.76,17.99,4.86,19.9,13.99,2.39,11.43,2.79,22.84-6.25,32.6,14.44,5.43,23.85,14.58,25.47,30.06,1.09,10.35-3.76,15.93-14.13,16.03-15.63.15-31.27.15-46.91,0-10.23-.1-15.35-5.79-14.17-16.06,1.77-15.31,11-24.74,25.89-30.09Z"/>
    <path class="cls-1" d="m306.91,147.19c-18.78,0-37.57.06-56.35-.03-10.31-.05-15.54-4.29-15.62-12.3-.09-8.34,5.38-12.75,16.04-12.76,38.09-.03,76.18.02,114.26-.04,5.93,0,11.63,1.36,13.32,7.29,1.13,3.95.83,9.88-1.5,12.81-2.4,3.01-8,4.7-12.25,4.81-19.29.49-38.6.21-57.91.22Z"/>
    <path class="cls-1" d="m307.7,80.78c-19.3,0-38.61-.01-57.91,0-6.91,0-12.41-2.35-14.49-9.42-2.24-7.61,2.71-14.75,11.02-15.54,6.21-.59,12.5-.33,18.76-.34,31.82-.02,63.65-.02,95.47,0,2.61,0,5.23-.07,7.81.23,7.16.83,11.79,5.67,11.89,12.18.1,6.36-4.6,11.96-11.53,12.61-6.21.59-12.51.26-18.76.27-14.09.02-28.17,0-42.26,0Z"/>
    <path class="cls-1" d="m167.57,440c-10.67,0-21.34.16-32.01-.05-8.45-.17-13.23-4.7-13.38-12.04-.15-7.61,4.92-12.84,13.46-12.92,21.08-.2,42.16-.2,63.24,0,8.2.08,13.9,5.9,13.61,13.01-.28,7.04-5.46,11.78-13.7,11.95-10.41.21-20.82.05-31.23.04Z"/>
    <path class="cls-1" d="m339.77,414.92c10.41,0,20.82-.13,31.23.04,9.15.15,14.38,5.1,14.2,13-.17,7.53-5.14,11.96-14.2,12.02-20.56.14-41.12.14-61.68,0-8.83-.06-14.18-4.74-14.44-12.02-.27-7.38,5.63-12.86,14.44-13,10.15-.16,20.3-.04,30.45-.04Z"/>
    <rect class="cls-2" x="83.27" y="5" width="340.85" height="501.98" rx="26.59" ry="26.59"/>
  </g>
</svg>