<?xml version="1.0" encoding="UTF-8"?>
<svg id="Layer_1" data-name="Layer 1" xmlns="http://www.w3.org/2000/svg" viewBox="0 0 510.46 512.09">
  <defs>
    <style>
      .cls-1 {
        fill: #142e62;
      }

      .cls-2 {
        fill: #dfaa1e;
      }
    </style>
  </defs>
  <g id="hostel">
    <path class="cls-1" d="m39.84,512v-9.61c0-144.1,0-288.2,0-432.31,0-16.39.76-32.57,10.7-45.66C60.96,10.71,73.47,1.57,89.41,1.47,192.02.85,294.63.32,397.24,0c13.39-.04,26.82.14,39.75,5.97,17.94,8.08,30.73,29.29,30.79,52.05.42,147.71.87,295.42,1.29,443.13.03,10.84,0,10.85-8.71,10.85-137.48,0-274.97,0-412.45,0h-8.07Zm392.28-41.3v-9.47c0-82.43,0-164.86,0-247.29,0-50.29-.08-100.58.08-150.86.03-8.02-2.1-14.72-7.89-18.15-4.44-2.63-9.87-4.04-14.86-4.05-98.06-.23-196.12-.21-294.18-.1-8.47,0-16.94.79-25.39,1.52-7.18.62-12.71,7.72-13.07,16.31-.33,7.76-.83,15.53-.86,23.29-.2,47.95-.36,95.9-.4,143.85-.07,78.8.03,157.6-.17,236.4-.02,7.02,1.51,9.21,7.64,9.17,42.93-.32,85.86-.3,128.79-.02,5.87.04,7.36-2.13,7.29-8.86-.29-26.95-.12-53.91-.12-80.87,0-2.71,0-5.41,0-8.41,22.69,0,44.26.13,65.82-.1,4.78-.05,5.2,2.74,5.18,7.22-.1,27.22-.05,54.43-.05,81.65,0,2.78,0,5.55,0,8.77h142.18Z"/>
    <path class="cls-2" d="m361.34,275.17c10.02,0,20.05.16,30.07-.08,4.07-.1,5.91,1.19,5.83,6.51-.23,15.55-.16,31.1-.03,46.65.04,4.28-1.26,6.15-4.91,6.16-20.92.03-41.84.28-62.75,0-1.53-.02-4.29-3.59-4.33-5.57-.32-15.8-.07-31.62-.13-47.43-.02-5.26,2.21-6.42,6.18-6.33,10.02.24,20.05.08,30.07.08Z"/>
    <path class="cls-2" d="m360.73,236.69c-10.02,0-20.05-.12-30.06.06-3.82.07-5.61-1.45-5.58-6.22.1-15.81.06-31.61-.02-47.42-.02-4.22,1.38-6.02,5.06-5.99,20.48.14,40.96.18,61.44.06,4.27-.03,5.71,1.97,5.65,6.95-.18,15.29-.22,30.58.02,45.87.08,5.29-1.74,6.7-5.79,6.62-10.24-.19-20.48-.06-30.72-.06,0,.04,0,.09,0,.13Z"/>
    <path class="cls-2" d="m182.59,177.7v58.19c-1.82.29-3.46.76-5.1.76-19.83.01-39.66-.24-59.48.04-6.04.09-8-2.33-7.67-9.51.63-13.96.56-27.96.8-41.94.1-5.98,2.28-8.34,7.68-8.23,19.39.39,38.78.14,58.18.18,1.85,0,3.71.32,5.6.5Z"/>
    <path class="cls-2" d="m397.14,79.19c0,19.51.15,36.82-.21,54.11-.04,1.84-3.02,5.13-4.67,5.15-20.9.35-41.81.35-62.71-.02-1.51-.03-4.25-3.59-4.27-5.54-.18-16.05-.02-32.12.52-48.16.06-1.91,2.93-5.28,4.53-5.3,21.95-.35,43.9-.24,66.82-.24Z"/>
    <path class="cls-2" d="m182.33,334.35c-22.46,0-44.42.1-66.36-.22-1.42-.02-3.94-3.18-4.02-5-.71-15.5-.96-31.02-1.36-46.54-.1-3.96.32-7.4,4.67-7.4,22.17.01,44.34,0,67.08,0v59.15Z"/>
    <path class="cls-2" d="m182.18,431.58h-70.85v-58.09h70.85v58.09Z"/>
    <path class="cls-2" d="m289.94,334.79h-70.6v-59.08c2.15-.2,4.03-.52,5.92-.52,19.17-.04,38.35.23,57.51-.18,5.9-.13,7.43,2.24,7.28,8.93-.35,16.52-.12,33.06-.12,50.85Z"/>
    <path class="cls-2" d="m397.15,431.56h-71.93c0-18.46-.12-36.02.2-53.56.03-1.65,2.79-4.6,4.31-4.62,20.9-.31,41.81-.33,62.72.03,1.59.03,4.47,3.38,4.5,5.25.35,17.07.21,34.15.21,52.9Z"/>
    <path class="cls-2" d="m182.71,138.68c-22.98,0-44.95.08-66.92-.19-1.35-.02-3.82-2.78-3.85-4.31-.27-17.55-.17-35.1-.17-53.54,6.83-.45,14.15-1.24,21.48-1.35,14.37-.23,28.74.09,43.11-.2,4.75-.09,6.53,1.62,6.44,7.51-.27,17.04-.1,34.08-.1,52.09Z"/>
    <path class="cls-2" d="m218.99,177.19c22.91,0,44.85-.09,66.8.22,1.39.02,3.92,3.14,3.96,4.87.3,16.3.33,32.61-.03,48.9-.04,1.88-2.92,5.24-4.52,5.27-20.66.36-41.33.34-62,.02-1.42-.02-4-3.12-4.03-4.84-.3-17.8-.18-35.61-.18-54.43Z"/>
    <path class="cls-2" d="m289.92,138.4h-70.94c0-7.08,0-14.19,0-21.3,0-10.34.15-20.69-.06-31.03-.1-4.9,1.22-6.98,5.57-6.94,20,.17,40,.11,60,.06,3.26,0,5.49.85,5.47,5.52-.07,17.56-.03,35.11-.03,53.7Z"/>
  </g>
</svg>