<?xml version="1.0" encoding="UTF-8"?>
<svg id="Layer_1" data-name="Layer 1" xmlns="http://www.w3.org/2000/svg" viewBox="0 0 510.46 512.09">
  <defs>
    <style>
      .cls-1 {
        fill: #142e62;
      }

      .cls-2 {
        fill: #dfaa1e;
      }
    </style>
  </defs>
  <g id="email">
    <path class="cls-1" d="m282.61,461.83c-46.73,0-93.46,0-140.19,0-9.59,0-9.72-.16-9.72-9.95,0-25.77-.2-51.55.16-77.32.08-5.72-2.2-7.7-7.16-8.88-44.54-10.65-78.01-36.35-101.27-75.47-9.38-15.77-15.68-32.87-18.67-51.01-8.97-54.43,4.89-102.39,43.36-141.91,29.49-30.31,65.92-46.17,108.9-47.12,41.63-.92,78.16,11.64,108.9,39.21,41.71,37.4,59.12,84.72,53.17,140.41-.62,5.82,1.13,6.72,6.2,6.71,56.79-.12,113.57-.08,170.36-.08,8.85,0,9.11.26,9.11,9.21,0,58.04,0,116.09,0,174.13,0,8.55-.41,8.98-8.74,8.98-18.86,0-37.72.15-56.58-.1-5.4-.07-7.63,1.46-7.23,7.13.44,6.26-.17,12.58.2,18.85.36,6.2-2.86,7.32-8.11,7.3-28.29-.13-56.58-.06-84.87-.06-19.28,0-38.56,0-57.83,0Zm-33.7-225.42c12.99,0,25.99-.07,38.98.04,4.12.04,6.67-.94,7.23-5.69,3.07-25.85.5-50.78-9.92-74.95-20.91-48.53-69.46-81.09-122.21-80.99-37.41.08-69.83,13.05-95.78,40.08-36.19,37.68-48,82.62-33.61,132.69,13.51,47.04,45.2,77.74,92.12,92.34,6.56,2.04,6.98,1.7,6.98-5.49,0-18.86-.01-37.72,0-56.59,0-8.35.23-8.59,8.35-8.6,19.28-.02,38.56-.1,57.84.07,4.32.04,6-1.31,5.8-5.77-.31-6.9.11-13.84-.16-20.74-.19-4.95,1.76-6.61,6.64-6.51,12.57.25,25.15.08,37.72.1Zm172.49,58.12c-3.11,1.67-5.29,2.69-7.32,3.95-41.57,25.89-83.17,51.74-124.63,77.82-4.43,2.78-7.56,3.16-12.25.2-41.24-26.02-82.68-51.72-124.09-77.49-2.32-1.44-4.84-2.56-7.99-4.21-.24,2.91-.5,4.54-.5,6.16-.02,47.36.06,94.72-.13,142.08-.02,5.65,1.93,7.06,7.31,7.05,87.39-.14,174.77-.17,262.16.04,6.44.02,8.14-1.89,8.11-8.18-.24-46.73-.12-93.46-.15-140.2,0-2-.28-3.99-.52-7.23Zm-271.52-12.95c-.24.59-.48,1.19-.72,1.78,1.56,1.14,3.06,2.38,4.7,3.4,41.38,25.8,82.8,51.55,124.13,77.42,3.71,2.32,6.59,2.25,10.32-.08,41.5-25.99,83.1-51.81,124.65-77.71,1.6-1,3.02-2.31,4.52-3.47-.2-.45-.4-.9-.6-1.35H149.87Zm344.37-20.57c-2.68,1.06-4.47,1.47-5.95,2.39-17.09,10.57-34.1,21.28-51.22,31.81-3.79,2.33-5.21,5.18-5.19,9.71.18,35.21.16,70.42-.02,105.63-.03,4.89,1.39,6.68,6.39,6.61,16.13-.23,32.28-.36,48.41.06,6.51.17,8.09-2.09,8.06-8.32-.24-46.74-.13-93.47-.14-140.21,0-2.06-.17-4.12-.33-7.67Zm-5.35-10.46l-.29-1.62H219.44c2.41,1.87,3.41,2.79,4.54,3.5,7.45,4.67,14.73,9.66,22.47,13.78,4.05,2.16,8.91,3.88,13.42,3.9,55.08.26,110.17.23,165.25.07,5.33-.02,7.94,1.32,7.27,7.02-.25,2.16.15,4.39.33,8.18,19.51-12.1,37.84-23.47,56.17-34.83Zm-270.93,11.4c-.71.39-1.43.77-2.14,1.16.67,2.11.83,5.55,2.12,6.05,2.79,1.07,6.16.63,9.29.8.13-.73.27-1.45.4-2.18-3.23-1.94-6.45-3.89-9.68-5.83Z"/>
    <path class="cls-2" d="m158.5,204.56c0-3.9,0-6.3,0-8.71,0-29.13,0-58.25,0-87.38,0-1.05-.35-2.26.07-3.11,1.13-2.31,2.57-4.47,3.89-6.69,1.25,2.28,3.56,4.56,3.58,6.85.23,33.73.19,67.47.13,101.21-.01,7.32-2.55,8.9-8.86,5.5-19.35-10.41-38.69-20.84-57.88-31.53-1.88-1.05-2.71-3.98-4.03-6.03,2.43-.06,5.32-1.01,7.2-.03,15.95,8.33,31.72,17.01,47.55,25.58,2.19,1.18,4.41,2.3,8.36,4.35Z"/>
  </g>
</svg>