<?xml version="1.0" encoding="UTF-8"?>
<svg id="Layer_1" data-name="Layer 1" xmlns="http://www.w3.org/2000/svg" viewBox="0 0 510.46 512.09">
  <defs>
    <style>
      .cls-1 {
        fill: #142e62;
      }

      .cls-2 {
        fill: #dfaa1e;
      }
    </style>
  </defs>
  <g id="Slip">
    <path class="cls-1" d="m337.83,471.42c-7.35,9.81-14.17,18.95-21.02,28.07-3.73,4.97-8.27,7.35-14.92,7.25-23.69-.33-23.62-.12-36.68-20.26-3.13-4.83-6.86-9.27-10.85-14.6-7.77,10.02-14.52,19.52-22.2,28.2-2.81,3.17-7.61,5.49-11.87,6.31-16.49,3.15-28.95-2.24-36.78-17.98-2.98-6-8.24-10.86-12.9-16.8-6.42,8.68-12.96,17.07-18.97,25.82-4.23,6.16-9.16,9.75-17.05,9.27-8.12-.49-16.3-.05-24.45-.12-19.22-.18-33.49-14.05-33.49-33.09-.04-126.59.04-253.18.07-379.77,0-18.59-.18-37.18-.08-55.78.1-19.78,13.3-33.02,33.07-33.03,85.6-.06,171.2.05,256.81-.17,7.23-.02,10.81,3.69,14.85,8.67,15.39,18.92,31.32,37.4,46.69,56.34,2.32,2.86,3.88,7.26,3.88,10.96.18,129.65-.14,259.29.38,388.94.09,21.83-15.82,38.57-36.94,37.02-6.84-.5-13.8-.57-20.62.04-8.57.77-13.8-3.34-18.32-9.88-5.87-8.5-12.2-16.69-18.61-25.4Zm20.21-445.11c-4.23,0-7.27,0-10.31,0-77.71,0-155.42,0-233.13,0-14.6,0-16.76,2.19-16.76,16.8,0,81.77,0,163.53,0,245.3,0,60.11-.01,120.23,0,180.34,0,13.16,2.85,15.92,16.26,15.97,4.84.02,9.78.6,14.49-.2,3.31-.56,7.26-2.26,9.27-4.78,8.42-10.49,16.16-21.52,24.25-32.28,4.11-5.46,10.86-6.14,15.94-1.26,3.08,2.96,5.45,6.67,8.07,10.09,6.32,8.28,12.43,16.73,18.97,24.84,4.57,5.68,11.29,5.05,15.61-.8,7.85-10.63,15.71-21.24,23.75-31.72,5.92-7.71,14.72-7.17,20.36.74,7.8,10.95,15.75,21.81,23.89,32.51,1.16,1.52,3.69,2.44,5.73,2.78,9.29,1.53,11.59-6.81,15.81-11.99,6.57-8.05,12.22-16.86,18.83-24.88,5.7-6.91,12.22-6.43,17.75.61,5.65,7.2,12.42,13.85,16.52,21.86,6.98,13.64,17.68,15.77,31.36,14.71,13.02-1,16.04-3.19,16.04-16.38,0-123.29,0-246.57-.01-369.86,0-2.97-.24-5.95-.41-9.8-12.8,0-24.96.05-37.12-.02-11.39-.06-15.12-3.81-15.14-15.06-.02-15.48,0-30.97,0-47.53Zm21.85,40.47h17.74c-5.97-7.12-11.24-13.4-17.74-21.15v21.15Z"/>
    <path class="cls-2" d="m254.39,172.19c-33.12,0-66.24.01-99.36-.02-2.79,0-6.35.67-8.19-.74-3.06-2.35-6.76-6.04-6.93-9.33-.17-3.32,3.05-7.52,5.92-10.03,1.9-1.66,5.81-1.35,8.82-1.36,66.24-.06,132.48-.05,198.72,0,2.78,0,5.63.16,8.32.78,5.76,1.33,7.46,5.69,7.19,11.01-.27,5.21-2.94,8.63-8.27,9.38-2.51.35-5.08.29-7.62.3-32.86.02-65.73.01-98.59.02Z"/>
    <path class="cls-2" d="m222.77,244.76c23.18,0,46.37-.02,69.55,0,9.36.01,14.51,4.01,14.31,10.97-.18,6.52-5.42,10.57-14.11,10.57-46.37.04-92.74.02-139.1.01-5.85,0-11.55-.82-13.65-7.36-2.6-8.11,2.37-14.07,11.92-14.13,23.69-.15,47.39-.05,71.08-.07Z"/>
    <path class="cls-2" d="m202.02,360.02c-16.79,0-33.59.11-50.38-.05-8.54-.08-12.43-3.86-12.2-11.14.2-6.33,4.07-9.99,11.7-10.25,8.64-.29,17.3-.1,25.95-.1,23.66,0,47.33,0,70.99.01,1.78,0,3.57-.08,5.34.06,7.55.61,12.03,4.96,11.76,11.3-.25,5.92-4.82,10.05-12.02,10.12-17.05.16-34.09.05-51.14.05Z"/>
  </g>
</svg>