<?xml version="1.0" encoding="UTF-8"?>
<svg id="Layer_1" data-name="Layer 1" xmlns="http://www.w3.org/2000/svg" viewBox="0 0 510.46 512.09">
  <defs>
    <style>
      .cls-1 {
        fill: #142e62;
      }

      .cls-2 {
        fill: #dfaa1e;
      }
    </style>
  </defs>
  <g id="scholarships">
    <path class="cls-2" d="m116.99,332.87c2.05-51.65,24.32-91.58,68.82-118.51,2.47-1.49,6.47-1.98,9.26-1.19,39.33,11.25,78.61,11.49,117.88.02,4.16-1.22,7.37-.86,11.13,1.32,49.34,28.67,75.98,87.02,65.38,143.61-10.54,56.31-55.54,100.63-111.59,109.92-77.49,12.84-148.64-39.44-159.45-117.26-.82-5.91-.97-11.92-1.43-17.93Zm126.66-77.14c-8.59,2.73-16.68,4.41-23.96,7.81-14.23,6.65-21.56,18.24-21.74,34.23-.18,16.21,6.76,28.1,21.41,34.93,6.44,3,13.4,5.02,20.27,6.92,3.17.88,4.16,2.19,4.07,5.3-.18,6.57-.06,13.16-.06,19.74,0,6.89,0,13.78,0,21.04-3.71,0-6.49-.03-9.27,0-6.57.09-13.18-.2-19.7.43-6.41.61-10.58,5.72-10.6,11.68-.01,6.2,4.47,11.12,11.11,11.89,2.76.32,5.57.2,8.36.21,6.51.03,13.01,0,20.09,0,0,5.54-.03,10.28,0,15.03.06,8.41,4.15,13.15,11.27,13.14,7.09,0,11.17-4.73,11.3-13.22.08-5.13.01-10.27.01-15.21,31.81-9.01,43.75-21.21,44.69-44.97.33-8.35-.69-16.35-5.51-23.42-9.29-13.61-24.16-17.23-38.76-21.06v-40.03c3.36,0,6.31,0,9.26,0,4.39,0,8.78.1,13.15-.07,7.36-.29,12.32-5.11,12.4-11.83.08-6.73-4.75-11.85-12.11-12.15-7.51-.3-15.03-.07-23.11-.07,0-3.23,0-5.77,0-8.31,0-2.79.12-5.59-.05-8.37-.44-7.22-5.27-12.07-11.64-11.84-6.52.24-10.79,5.05-10.89,12.44-.08,5.53-.02,11.07-.02,15.71Z"/>
    <path class="cls-1" d="m400.53,78.48c-14.63,3.62-28.69,7.1-42.75,10.59-22.81,5.67-45.57,11.49-68.42,16.99-28.47,6.84-56.41,3.74-84.48-3.55-52.23-13.56-104.71-26.15-157.07-39.23-3.83-.96-7.71-2.21-11.18-4.05-4.67-2.48-4.61-5.8.05-8.42,2.91-1.63,6.2-2.77,9.45-3.58,58.93-14.67,117.83-29.51,176.87-43.75,25.95-6.26,51.7-3.38,77.44,3.24,53.03,13.64,106.27,26.5,159.41,39.7,2.51.62,5.23.99,7.4,2.25,3.06,1.79,5.69,4.31,8.51,6.51-2.89,2.17-5.51,5.01-8.74,6.34-4.75,1.95-9.93,2.88-14.94,4.15-11,2.79-21.98,5.67-33.05,8.17-3.19.72-4.22,1.94-4.18,5.13.16,11.57-.03,23.14.16,34.71.03,1.71.98,3.87,2.24,5,5.02,4.52,7.14,10.32,6.63,16.65-1.28,15.96-2.17,31.84,2.13,47.53.07.25-.3.62-.89,1.78-3.11-3.39-5.99-6.54-9.22-10.06-2.42,6.32-4.83,12.65-7.25,18.97-.56.07-1.11.13-1.67.2-2.43-6.29-4.85-12.58-7.37-19.11-3.03,3.27-6.03,6.49-9.02,9.72l-1.31-.68c.54-2.57,1.47-5.13,1.56-7.72.41-12.5.91-25.02.75-37.53-.1-7.71.72-14.67,7.01-20.03,1.03-.88,1.85-2.64,1.87-4,.15-11.75.08-23.5.08-35.95Z"/>
    <path class="cls-1" d="m342.69,202.11c6.95-4.01,13.3-7.69,19.64-11.35,51.59,36.98,85.47,110.26,65.4,187.62-19.72,76.03-87.03,129.86-166.27,133.44-77.03,3.49-149.87-45.7-175.52-118.54-26.07-74.03-1.61-156.4,60.48-202.69,6.46,3.73,13.07,7.54,20.13,11.61-44.71,32.83-68.95,76.05-69,131.49-.04,43.38,15.86,80.64,46.7,111,62.62,61.63,162.78,59.95,223.44-2.68,66.08-68.22,57.39-185.06-25.01-239.91Z"/>
    <path class="cls-1" d="m149.17,101.34c17.17,4.24,33.8,7.56,49.94,12.48,38.24,11.64,76.09,10.69,114.15-.79,15.02-4.53,30.46-7.65,46.58-11.63,0,2.56,0,4.64,0,6.72,0,20.54-.17,41.09.12,61.62.07,4.62-1.53,7.2-5.2,9.65-22.83,15.26-48.1,23.94-75.14,27.24-39.57,4.82-77.46-.94-112.95-19.81q-17.51-9.31-17.5-28.91c0-18.53,0-37.07,0-56.57Z"/>
    <path class="cls-1" d="m266.57,346.18c13.3,2.01,19.59,7.07,19.68,15.62.12,11.47-7.44,19.96-19.68,21.86v-37.48Z"/>
    <path class="cls-1" d="m243.35,315.04c-13.85-1.93-20.82-7.74-20.71-16.97.1-8.77,8-14.99,20.71-16.1v33.06Z"/>
  </g>
</svg>