<?xml version="1.0" encoding="UTF-8"?>
<svg id="Layer_1" data-name="Layer 1" xmlns="http://www.w3.org/2000/svg" viewBox="0 0 509.69 512.09">
  <defs>
    <style>
      .cls-1 {
        fill: #142e62;
      }

      .cls-2 {
        fill: #dfaa1e;
      }
    </style>
  </defs>
  <g id="shoer_curses" data-name="shoer curses">
    <path class="cls-1" d="m409.47,248.14c-2.58-3.74-3.89-6.15-5.68-8.12-4.48-4.91-8.41-11.08-14-14.03-7.07-3.74-8.69-8.44-8.67-15.6.17-54.46.1-108.92.1-163.38,0-2.35.02-4.69-.03-7.04-.13-5.77-2.7-9.4-8.78-9.86-4.93-.38-9.86-1.01-14.79-1.02-80.24-.06-160.47-.05-240.71-.04-21.07,0-22.73,1.68-22.73,22.49,0,110.48,0,220.96,0,331.44,0,15.36,3.33,18.96,18.81,18.85,18.47-.13,36.97-1.61,55.38-.81,9.27.4,18.56,4.05,27.48,7.25,4.82,1.73,5,5.66,1.35,10-7.79,9.27-16.43,14.46-29.53,13.66-19.98-1.23-40.11-.76-60.15-.21-25.73.7-44.15-16.93-44.17-44.49-.09-115.43-.23-230.86.14-346.3.06-20,10.26-31.49,26.39-39.89,2.13-1.11,5.09-.85,7.67-.85C191.08.17,284.6.33,378.12,0c13.69-.05,33.26,18.31,33.08,37.22-.57,62.01-.22,124.03-.22,186.04,0,5.99.18,11.99.1,17.98-.02,1.63-.73,3.26-1.61,6.9Z"/>
    <path class="cls-2" d="m250.36,238.68c3.83.73,9.98,1.81,16.08,3.09,7.52,1.58,13.79-.22,19.08-5.99,4.22-4.61,8.65-9.05,13.3-13.21,7.4-6.62,15.82-6.57,23.18.09,4.63,4.19,9.03,8.66,13.29,13.23,5.32,5.71,11.6,7.36,19.14,5.89,6.62-1.29,13.31-2.52,20.02-3,7.68-.54,13.12,3.44,15.21,10.8,1.7,5.97,2.79,12.17,3.49,18.34.99,8.65,4.01,15.41,12.79,18.78,4.83,1.86,9.38,4.5,13.95,6.97,10.96,5.93,13.25,13.98,7.68,25.51-13.35,27.64-13.63,19.59.17,47.83,5.52,11.29,2.98,19.4-8.17,25.36-4.59,2.45-9.13,5.1-13.96,6.97-8.15,3.14-11.21,9.42-12.35,17.43-.88,6.17-1.84,12.37-3.4,18.39-2.1,8.11-7.56,12.24-16.01,11.91-5.68-.22-11.36-1.31-16.96-2.43-9.41-1.88-17.44-.27-23.85,7.52-3.13,3.8-6.86,7.13-10.46,10.52-7.91,7.44-16.2,7.51-24.28.14-3.65-3.33-7.41-6.67-10.47-10.51-6.58-8.27-14.98-9.34-24.58-7.53-27.52,5.18-32.78,1.32-35.47-26.51-.88-9.15-4.4-15.77-13.32-19.24-4.58-1.79-8.89-4.31-13.26-6.63-10.7-5.68-14.88-14.8-8.25-24.54,11.81-17.35,11.53-32.94-.22-50.09-6.14-8.96-2.01-18.43,8.12-24.1,4.76-2.67,9.6-5.29,14.65-7.33,8.01-3.23,11.43-9.18,12.16-17.45.5-5.69,1.29-11.41,2.66-16.95,2.23-8.97,8.45-13.37,20.02-13.27Zm-26.03,101.92c-2.21,44.2,35.67,86.99,86.7,86.59,48.41-.38,86.27-38.2,86.01-86.95-.25-48.55-38.2-85.62-86.33-85.95-51.71-.35-87.76,42.79-86.38,86.3Z"/>
    <path class="cls-2" d="m202.79,141.17c.32-2.91.91-5.82.93-8.74.08-19.52.27-39.04-.1-58.55-.14-7.58,2.75-10.02,10.11-9.9,14.92.25,14.97-.05,14.9,14.86-.1,19.77.17,39.56-.57,59.31-.55,14.52-11.01,22.99-26.26,22.74-15.95-.26-25.79-8.82-26.27-23.58-.68-20.78-1.01-41.57-1.31-62.36-.14-9.85.92-10.76,10.61-10.84,1.82-.02,3.66.17,5.46-.04,6.87-.78,9.15,2.34,9.06,9.03-.28,20.03-.13,40.07-.08,60.11,0,2.66.43,5.31.65,7.97.96,0,1.92,0,2.89-.01Z"/>
    <path class="cls-2" d="m296.78,107.77c12.12,12.59,8.91,27.13,6.09,41.28-1.24,6.24-6.79,9.07-13.04,9.24-11.18.29-22.36.22-33.54.36-4.77.06-6.22-2.5-6.2-6.91.08-26.53.1-53.07,0-79.61-.02-5.55,2.23-8.32,7.88-8.01,9.84.54,19.71.7,29.49,1.73,8.22.87,13.25,6.38,14.31,14.3,1.29,9.63,3.51,19.76-4.99,27.61Zm-21.13,11.12v21.65c5.83-7.43,6-15.08,0-21.65Zm2.8-34.86c-.86-.01-1.71-.02-2.57-.03v15.23c.86-.04,1.71-.07,2.57-.11v-15.08Z"/>
    <path class="cls-2" d="m396.76,512c-3.74-2.47-7.97-4.43-11.13-7.49-13.61-13.22-27.04-26.63-40.18-40.31-2.32-2.41-2.94-6.45-4.34-9.73,3.64-1.3,7.28-3.65,10.93-3.66,5.64-.03,11.29,1.53,16.94,2.43,14.5,2.3,24.79-4.75,28.21-18.96,1.04-4.32,2.99-8.41,4.53-12.61,3.57,2.8,7.42,5.32,10.67,8.46,9.91,9.57,19.97,19.03,29.1,29.31,2.53,2.85,2.83,8.44,2.55,12.67-.12,1.8-4.15,4.01-6.77,4.82-5.19,1.61-10.59,2.85-15.98,3.36-6.14.58-8.58,4.04-9.48,9.46-.59,3.59-1.34,7.16-1.77,10.76-.87,7.24-3.57,12.02-12.49,9.21-.26.76-.52,1.52-.79,2.29Z"/>
    <path class="cls-2" d="m213.47,511.53c-1.71-8.61-3.17-14.94-4.19-21.34-.92-5.78-3.03-9.52-9.74-9.94-5.13-.32-10.19-1.98-15.26-3.15-9.01-2.08-12.06-10.25-5.64-17.07,11.76-12.52,24.07-24.53,36.34-36.56,3.82-3.74,6.43-2.4,7.27,2.83.49,3.08,1.2,6.13,1.92,9.17,2.98,12.57,13.3,19.77,26.11,18.08,6.71-.89,13.36-2.66,20.07-2.82,3.31-.08,6.69,2.59,10.04,4.01-1.28,2.8-1.93,6.22-3.95,8.31-14.48,14.96-28.8,30.15-44.22,44.1-3.93,3.55-11.68,2.89-18.74,4.38Z"/>
    <path class="cls-2" d="m152.63,111.6c0,13-.23,26.01.1,39.01.15,6.18-2.26,8.22-8.25,8.15-18.35-.23-15.6.98-15.68-15.24-.11-22.88-.04-45.77-.02-68.65,0-10.53.26-10.75,11.07-10.75,1.04,0,2.09.11,3.12-.02,7.71-.94,9.99,2.85,9.77,10.07-.37,12.47-.1,24.96-.1,37.44Z"/>
    <path class="cls-2" d="m310.91,263.72c42.15.09,78.21,35.45,76.96,77.01-1.39,46.28-35.17,77.01-79.35,77.1-40.4.08-76-36.45-75.67-77.12.34-42.58,35.33-77.08,78.06-76.99Z"/>
  </g>
</svg>