<?xml version="1.0" encoding="UTF-8"?>
<svg id="Layer_1" data-name="Layer 1" xmlns="http://www.w3.org/2000/svg" viewBox="0 0 512 512.09">
  <defs>
    <style>
      .cls-1 {
        fill: #142e62;
      }

      .cls-2 {
        fill: #dfaa1e;
      }
    </style>
  </defs>
  <g id="Society">
    <path class="cls-2" d="m256.45,212.3c19.18.87,33.79,9.94,41.93,27.75,8.24,18.03,5.58,35.24-6.42,51.12-3.03,4-5.67,8.44-7.69,13.03-4.07,9.28-10.34,13.82-20.01,13.52-7.83-.24-15.67-.65-23.5-.75-4.77-.06-7.61-1.68-10.04-6.3-4.5-8.58-10.1-16.59-15.46-24.7-10.7-16.17-10.03-32.8-1.27-49.19,8.83-16.51,23.5-23.97,42.45-24.48Zm-33.97,38.69c4.74-12.12,13.33-19.93,25.47-24.07-15.33,1.33-23.05,8.64-25.47,24.07Z"/>
    <path class="cls-1" d="m255.11,99.46c-16.79-.02-30.76-15.21-30.67-33.36.09-17.82,13.75-32.55,30.39-32.76,17.01-.21,30.96,14.58,31.02,32.89.06,18.26-13.81,33.24-30.75,33.23Z"/>
    <path class="cls-1" d="m65.1,236.33c-18.51-.14-33.99-15.15-33.61-32.62.36-16.52,14.53-29.92,31.43-29.72,18.22.22,33.46,15.28,33.39,33-.06,16.86-13.48,29.47-31.21,29.34Z"/>
    <path class="cls-1" d="m168.15,427.61c.18,18.79-14.96,34.92-33.09,35.27-15.88.31-29.36-13.77-29.28-30.58.09-18.72,15.02-34.02,33.23-34.04,16.72-.02,28.98,12.32,29.14,29.34Z"/>
    <path class="cls-1" d="m444.73,236.34c-17.67-.03-30.73-12.75-30.63-29.84.1-17.58,15.67-32.54,33.85-32.52,16.86.02,30.92,13.8,30.84,30.24-.08,17.69-15.42,32.16-34.05,32.12Z"/>
    <path class="cls-1" d="m370.81,398.27c18.33-.26,33.27,14.54,33.75,33.42.43,16.76-12.59,30.96-28.62,31.21-17.83.29-33.44-15.86-33.56-34.73-.11-17.23,11.72-29.67,28.44-29.9Z"/>
    <path class="cls-1" d="m465.6,237.92c1.81,5.81,1.41,11.92-3.88,15.72-12.23,8.79-24.92,16.95-37.63,25.04-1.75,1.11-4.78.96-7,.45-12.63-2.94-25.25-5.97-37.77-9.36-9.05-2.45-12.52-7.52-11.18-15.05,1.51-8.48,7-12.49,16.43-11.73,4.03.33,8.19.56,12.02,1.74,11.94,3.67,23.33,3.9,34.27-3.2,1.92-1.25,4.61-1.59,7-1.78,9.07-.73,18.15-1.22,27.73-1.83Z"/>
    <path class="cls-1" d="m101.36,414.49c-5.84-5.3-8.05-13.18-3.97-22.64.84-1.95,1.26-4.12,1.67-6.23,2.93-14.94,10.77-26.8,24.06-33.96,10.15-5.48,21.11-9.63,32.03-13.46,7.78-2.72,13.58.49,16.69,7.43,3.02,6.76,1.19,13.12-5.9,17.28-6.04,3.54-12.94,5.65-18.8,9.43-5.52,3.55-10.5,8.13-15.13,12.84-5.77,5.87-10.64,12.63-16.47,18.43-3.98,3.96-8.95,6.94-14.17,10.89Z"/>
    <path class="cls-1" d="m68.24,168.13c3.15-9,8.66-12.56,18.67-12.23,6.96.23,13.94.25,20.9-.02,11.65-.45,21.29,3.9,28.7,12.53,7.57,8.81,14.62,18.08,21.6,27.38,4.07,5.42,2.63,10.9-1.75,15.41-4.79,4.94-10.81,7.11-16.7,2.5-5.71-4.47-10.88-9.74-15.69-15.19-6.76-7.66-14.54-12.47-24.99-13.42-4.04-.37-8.04-2.88-11.72-5-6.25-3.6-12.23-7.66-19.01-11.96Z"/>
    <path class="cls-1" d="m292.68,58.28c6.57,1.04,12.83,3.01,15.16,11.08,3.38,11.68,7.27,23.26,9.82,35.12.92,4.27-.38,9.8-2.5,13.77-5.72,10.72-12.17,21.07-18.82,31.25-5.56,8.5-11.87,10.14-19.2,5.98-7.12-4.05-8.8-10.46-4.78-19.67,1.72-3.95,3.8-7.79,6.12-11.42,6.39-10.01,9.38-20.48,6.4-32.42-.73-2.93.12-6.45.91-9.52,2-7.77,4.37-15.45,6.89-24.18Z"/>
    <path class="cls-1" d="m290.95,388.14c-.22-10.53,3.72-15.87,12.33-16.69,9.35-.89,14.13,3.52,15.57,14.42.6,4.55,1.15,9.11,1.7,13.67,1.03,8.53,2.05,16.45,10.04,22.59,4.44,3.41,6.03,10.56,8.85,16.05,2.45,4.76,4.41,9.83,7.35,14.26,3.07,4.62,1.8,7.91-2.91,8.09-5.58.21-12.19-.12-16.66-2.92-9.09-5.7-17.53-12.72-25.26-20.21-3.8-3.68-6.86-9.37-7.74-14.58-1.93-11.42-2.26-23.1-3.27-34.68Z"/>
    <path class="cls-1" d="m93.76,279.45c-3.34-.88-5.68-.99-7.47-2.04-12.08-7.02-24.28-13.89-35.89-21.64-3.16-2.11-5.27-6.83-6.36-10.76-1.61-5.8,1.55-8.07,7.53-6.98,16.43,2.99,32.83,6.51,49.4,8.24,8.01.84,16.49-1.43,24.59-3.09,7.25-1.49,12.7.71,15.6,7.67,3.04,7.27,1.32,14.9-5.61,17.16-14.05,4.59-28.53,7.88-41.8,11.43Z"/>
    <path class="cls-1" d="m219.91,65.92c3.21,18.87,5.91,37.29,9.7,55.48,1.1,5.26,5.02,10.07,8.15,14.75,4.34,6.46,3.77,12.63-2.27,17.89-5.96,5.19-12.31,5.75-16.89-.7-9.52-13.38-17.93-27.56-26.52-41.57-.94-1.53-.54-4.28,0-6.25,3.42-12.24,6.8-24.51,10.8-36.56,1.1-3.3,3.75-6.75,6.66-8.65,6.36-4.16,10.37-1.5,10.36,5.62Z"/>
    <path class="cls-1" d="m400,157.44c7.02-.5,14.03-1.2,21.05-1.43,3.73-.12,8.01-.43,11.09,1.17,3.82,1.98,6.66,5.86,9.92,8.92-2.78,2.63-5.13,6.12-8.41,7.74-9.44,4.67-19.25,8.61-28.92,12.8-11.9,5.16-22.08,12.34-29.6,23.23-5.02,7.28-11.58,8.29-18.22,3.78-6.79-4.61-9.08-12.43-3.95-19.04,8.95-11.52,18.26-22.93,28.76-32.98,4.07-3.9,11.77-4,17.82-5.84.15.55.3,1.1.45,1.65Z"/>
    <path class="cls-1" d="m407.74,415.99c-7.7-7.32-15.02-14.05-22.06-21.06-3.04-3.03-6.68-6.21-8.04-10.03-3.32-9.4-10.56-12.98-19.06-15.87-5.32-1.81-10.57-4.23-15.33-7.2-6.07-3.78-7.73-9.53-4.66-16.22,2.97-6.48,7.94-9.2,15.11-8.02,33.62,5.55,54.29,25.49,60.89,58.8,1.58,7.98-1.5,14.23-6.84,19.6Z"/>
    <path class="cls-1" d="m219.33,385.26c-1.07,14.35-1.27,26.33-3.17,38.04-.83,5.1-4.28,10.51-8.07,14.23-7.11,6.99-15.34,12.84-23.08,19.19-5.93,4.86-12.56,6.5-19.64,3.35-1.44-.64-2.96-4.51-2.32-5.89,4.56-9.77,7.84-21.08,15.05-28.44,11.31-11.53,12.73-24.72,13.41-39.14.33-6.97,2.6-13.53,10.99-14.97,10.74-1.85,17.14,4.36,16.82,13.64Z"/>
    <path class="cls-1" d="m359.27,502.04c-2.15-1.82-5.81-3.51-6.9-6.23-1.08-2.69-.08-6.61,1.03-9.62.61-1.65,3.18-2.83,5.1-3.72,25.08-11.63,46.43-28.4,66.08-47.57,2.3-2.24,4.74-5.2,7.56-5.83,3.14-.7,7.89-.22,9.9,1.78,2.02,2.02,1.95,6.55,1.95,9.98,0,1.5-1.94,3.14-3.22,4.5-21.76,23.04-46.99,41.29-75.78,54.58-1.46.67-3.02,1.13-5.74,2.13Z"/>
    <path class="cls-1" d="m512,237.78c-3.38,2.64-6.4,6.51-10.23,7.64-5.63,1.66-9.04-2.3-10.16-7.79-2.17-10.58-3.18-21.52-6.54-31.7-5.48-16.63-12.47-32.75-18.76-49.11-1.24-3.23-3.37-6.74-2.94-9.82.4-2.85,3.18-6.36,5.84-7.6,2.19-1.02,6.05.28,8.58,1.64,1.9,1.03,3.06,3.68,4.24,5.78,15.01,26.76,22.82,55.89,28.21,85.82.19,1.06.2,2.15.29,3.23.49.64.98,1.28,1.47,1.91Z"/>
    <path class="cls-1" d="m.15,232.59c4.83-30.12,13.78-60.55,29.97-88.53,2.85-4.92,6.92-7.78,12.78-4.26,6.01,3.62,5.69,8.78,2.85,14.06-10.82,20.13-18.65,41.34-23.46,63.65-1.36,6.33-2.24,12.77-3.48,19.14-1.09,5.58-3.68,9.82-10.28,8.97-6.59-.85-9.19-5-8.36-13.04Z"/>
    <path class="cls-1" d="m73.89,426.16c3.41,2.23,6.48,3.52,8.6,5.73,20.25,21.04,43.45,37.96,69.66,50.82,5.82,2.86,8.92,7.32,5.71,13.8-3.17,6.4-8.07,5.62-13.69,2.97-28.41-13.46-53.47-31.49-74.58-54.77-2.43-2.68-3.69-7.69-3.21-11.31.34-2.54,4.56-4.56,7.51-7.23Z"/>
    <path class="cls-1" d="m254.57,9.96c15.31,1.47,30.65,2.79,45.94,4.48,5.02.55,9.57,2.5,10.2,8.61.67,6.56-3.22,10.69-10.38,10.05-9.15-.82-18.24-3.4-27.34-3.34-18.33.12-36.66,1.49-54.98,2.41-2.69.14-5.36.73-8.06.93-5.24.39-9.04-1.46-10.11-7.06-1.11-5.85,1.63-9.86,7.05-10.94,8.73-1.74,17.6-2.95,26.47-3.69,6.99-.58,14.06-.12,21.1-.12.04-.45.08-.9.11-1.34Z"/>
    <path class="cls-1" d="m310,136.84c7.87-16.96,8.42-17.82,22.51-8.78,13.09,8.39,24.98,18.69,37.1,28.52,7.52,6.1.76,10.18-2.85,14.46-4.16,4.93-6.74,1.65-10.5-1.3-12.48-9.8-25.44-18.99-38.29-28.31-2.34-1.7-5.03-2.91-7.98-4.59Z"/>
    <path class="cls-1" d="m260.01,428.17c-10.9-1.03-21.14-1.69-31.28-3.08-6.41-.88-8.7-6.78-6.94-14.7,1.5-6.75,5.77-3.96,10.02-3.85,15.32.39,30.65.08,45.97.1,4.05,0,9.32-3.57,10.68,4.21,1.82,10.42,1.07,12.48-7.5,14.09-7.15,1.34-14.38,2.23-20.96,3.23Z"/>
    <path class="cls-1" d="m111.07,278.92c1.36,1.8,3.69,3.49,3.98,5.47,2.63,18.09,8.24,35.12,16.62,51.37.94,1.82-.45,6.84-2.07,7.61-4.31,2.05-9.94,8.07-14.05.97-10.1-17.45-16.77-36.28-18.12-56.57-.61-9.17,8.23-5.47,13.65-8.85Z"/>
    <path class="cls-1" d="m199.86,136.57c-1.83,1.22-3.83,2.43-5.71,3.8-13.27,9.62-26.61,19.14-39.7,29-3.81,2.87-6.75,6.75-11.37,1.32-3.9-4.58-9.2-8.99-1.97-14.73,11.81-9.37,23.33-19.24,35.93-27.43,14.27-9.28,15.38-8.36,22.83,8.04Z"/>
    <path class="cls-1" d="m396.33,279.79c3.65.5,6.05.84,8.45,1.14,6.56.83,10.24,4.38,8.23,11.01-4.99,16.48-10.11,32.94-16,49.1-2.32,6.36-8.04,6.92-15.06,3.5-6.62-3.22-3.73-7.08-1.95-11.94,5.34-14.65,9.94-29.56,14.72-44.41.8-2.49,1.02-5.17,1.63-8.41Z"/>
    <path class="cls-1" d="m398.37,194.05c4.88,15.07,9.48,28.76,13.53,42.61.4,1.38-2.15,4.83-3.96,5.45-6.82,2.34-12.84-.67-15.81-7.51-1.82-4.2-3.28-8.58-4.62-12.96-4.55-14.84-4.15-15.94,10.87-27.59Z"/>
    <path class="cls-1" d="m231.3,110.58c16.47-4.74,32.31-3.9,48.29-.12-3.84,14.73-6.23,16.58-20.55,16.48-3.24-.02-6.48.14-9.73.1-11.48-.14-15.71-3.82-18.02-16.46Z"/>
    <path class="cls-1" d="m327.86,411.1c-1.67-6.32-3.2-9.7-3.27-13.1-.06-2.9.68-6.79,2.62-8.56,5.36-4.88,11.34-9.16,17.42-13.17,7.97-5.25,14.75-3.73,23.29,5.84-13.08,9.46-25.98,18.79-40.06,28.98Z"/>
    <path class="cls-1" d="m141.43,381.21c15.44-11.21,18.25-10.97,27.39-2.16,2.48,2.38,5.94,3.71,8.83,5.7,9.59,6.61,10.72,13.3,2.78,25.06-12.68-9.3-25.29-18.55-39-28.6Z"/>
    <path class="cls-1" d="m102.24,245.09c-1.69-4.18-3.92-6.88-3.39-8.82,3.27-11.93,6.98-23.75,10.93-35.48,1.58-4.71,6.02-5.74,8.75-2.05,3.12,4.21,6.84,10.28,5.96,14.67-1.64,8.17-5.86,16.04-10.16,23.36-1.87,3.18-6.59,4.69-12.09,8.33Z"/>
    <path class="cls-2" d="m251.84,321.45c6.16-.35,12.35-1.24,18.45-.81,2.68.19,5.17,3.04,7.75,4.69-2.56,2.12-5.06,5.96-7.67,6.04-10.68.33-21.43-.21-32.09-1.11-2.41-.2-4.6-3.13-6.89-4.8,2.24-1.42,4.35-3.71,6.75-4.07,4.47-.66,9.11-.19,13.69-.19,0,.08.01.16.02.25Z"/>
    <path class="cls-2" d="m254.66,344.89c-4.04,0-8.21.61-12.07-.22-2.49-.53-4.53-3.16-6.77-4.85,2-1.74,3.94-4.9,6.01-4.99,9.13-.36,18.32-.13,27.44.58,2.26.18,4.32,2.96,6.47,4.54-2.44,1.56-4.73,4.04-7.37,4.48-4.46.75-9.13.21-13.72.21,0,.08,0,.17,0,.25Z"/>
    <path class="cls-2" d="m177.18,266.65c-3.49,0-7.14.63-10.4-.22-2.24-.59-3.95-3.24-5.89-4.97,2.07-1.96,3.99-5.36,6.25-5.6,6.84-.74,13.87-.75,20.7.03,2.17.25,3.94,3.88,5.9,5.97-2.04,1.56-3.89,3.95-6.17,4.49-3.3.77-6.91.2-10.38.2,0,.04,0,.07,0,.11Z"/>
    <path class="cls-2" d="m298.56,220.51c-.29-2.71-1.69-6.1-.62-7.31,5.86-6.64,12.22-12.85,18.68-18.92.99-.93,3.85-1.06,4.98-.29,1.11.75,2.05,3.99,1.44,4.66-6.47,7.11-13.25,13.94-20.01,20.77-.47.48-1.51.4-4.47,1.08Z"/>
    <path class="cls-2" d="m333.45,256.33c3.5,0,7.12-.54,10.45.2,2.09.46,3.76,2.85,5.62,4.38-1.75,1.98-3.36,5.5-5.28,5.67-7.47.69-15.06.7-22.54.06-1.83-.16-3.38-3.73-5.05-5.73,1.85-1.51,3.51-3.93,5.58-4.34,3.61-.72,7.47-.2,11.22-.2,0-.01,0-.02,0-.04Z"/>
    <path class="cls-2" d="m249.68,182.88c0-3.48-.72-7.17.25-10.36.66-2.16,3.46-4.41,5.73-5.02,1.09-.29,4.45,3.04,4.59,4.89.55,7.46.63,15.03-.01,22.47-.17,1.92-3.38,4.47-5.59,4.96-1.21.27-4.29-2.94-4.69-4.95-.77-3.86-.22-7.99-.22-12h-.05Z"/>
    <path class="cls-2" d="m188.99,330.45c-.53-2.02-2.36-5.35-1.52-6.29,6.27-7.02,13-13.63,19.8-20.16.83-.79,3.57-.93,4.27-.22,1.1,1.1,2.18,4.07,1.59,4.72-6.67,7.3-13.66,14.31-20.6,21.35-.3.31-1.03.2-3.53.6Z"/>
    <path class="cls-2" d="m188.7,191.96c3.64,1.76,5.37,2.14,6.43,3.19,5.71,5.67,11.45,11.35,16.72,17.42,1.13,1.3.36,4.25.47,6.44-2.14-.14-5.07.56-6.3-.57-6.31-5.84-12.4-11.96-18.01-18.45-1.08-1.25.32-4.63.69-8.02Z"/>
    <path class="cls-2" d="m323.51,328.06c-1.67.4-4.96,2.15-5.93,1.29-7-6.26-13.66-12.94-20.01-19.86-.54-.59,1.59-5.41,3.05-5.73,4.28-.95,23.05,17.8,22.89,24.31Z"/>
    <path class="cls-2" d="m268.06,349.27c-5.35,8.63-16.07,12.1-22.22,8.13-1.72-1.11-2.49-3.7-3.69-5.61,1.79-.84,3.56-2.32,5.39-2.41,6.51-.3,13.03-.12,20.52-.12Z"/>
  </g>
</svg>