<?xml version="1.0" encoding="UTF-8"?>
<svg id="Layer_1" data-name="Layer 1" xmlns="http://www.w3.org/2000/svg" viewBox="0 0 512 512.09">
  <defs>
    <style>
      .cls-1 {
        fill: #142e62;
      }

      .cls-2 {
        fill: #dfaa1e;
      }
    </style>
  </defs>
  <g id="Layer_2" data-name="Layer 2">
    <g>
      <path class="cls-1" d="m202.13,146.91c0-29.22-.05-57.53.05-85.83.02-4.27.22-8.66,1.23-12.78,3.64-14.8,16.19-25.11,31.42-25.4,17.9-.35,35.82-.37,53.72,0,16.74.35,30.49,12.64,32.11,29.36,1.15,11.91.67,23.99.73,36,.09,19.25.02,38.49.02,58.65,2.86,0,5.27,0,7.68,0,38.99,0,77.98-.03,116.96,0,39.01.04,64.88,25.82,64.9,64.66.03,69.15.03,138.29,0,207.44-.02,38.56-25.76,64.27-64.46,64.28-126.71.04-253.42.05-380.13,0-38.53-.02-64.16-25.87-64.17-64.56-.03-69.15-.03-138.29,0-207.44.02-38.43,25.94-64.32,64.49-64.37,42.39-.06,84.78-.01,127.16-.01,2.46,0,4.93,0,8.29,0Zm.03,19.04h-6.8c-43.06,0-86.12-.04-129.18.02-27.49.04-44.94,17.59-44.95,45.13-.02,69.36-.02,138.72,0,208.08,0,27.68,17.25,45.06,44.87,45.07,126.92.04,253.83.04,380.75,0,27.68,0,45.05-17.35,45.06-44.89.03-69.36.03-138.72,0-208.08-.01-27.92-17.44-45.29-45.47-45.32-39.21-.04-78.42-.01-117.62-.01-2.21,0-4.42,0-7.93,0,0,7.82.67,15.07-.13,22.15-1.94,17.01-15.59,29.38-32.61,29.68-17.67.31-35.36.34-53.03,0-18.17-.35-32.43-14.96-32.93-33.17-.16-5.87-.03-11.75-.03-18.66Zm100.2-45.38c0-20.4.11-40.81-.04-61.21-.09-11.92-5.77-17.47-17.58-17.54-15.41-.09-30.83-.1-46.24,0-11.85.08-17.3,5.67-17.31,17.71-.04,40.58-.04,81.16,0,121.74.01,11.9,5.6,17.5,17.47,17.57,14.73.08,29.47.04,44.2.02,14.37-.02,19.47-5.18,19.5-19.79.04-19.5,0-38.99,0-58.49Z"/>
      <path class="cls-2" d="m121.72,312.97c-20.05-26-19.75-53.05.52-71.45,18.98-17.23,47.57-16.88,66.04.6,15.45,14.62,24.07,44.12-.03,70.54,1.45,1.02,2.81,2.07,4.25,2.98,19.47,12.24,29.74,29.96,31.07,52.8.44,7.46.25,14.96.09,22.44-.16,7.43-3.47,11.1-10.79,11.13-38.53.14-77.07.14-115.61,0-7.55-.03-10.82-3.48-10.81-10.92.02-10.19-.63-20.53.82-30.54,3.04-20.95,13.62-34.85,34.44-47.59Zm82.6,69.7c1.92-21.75-2.72-40.35-22.38-50.87-19.03-10.19-39.1-9.95-57.44,2.17-17.27,11.42-20.86,28.97-18.55,48.7h98.37Zm-49.75-76.37c16.11.13,29.04-12.43,29.38-28.55.34-16.07-12.93-29.48-29.22-29.52-15.62-.04-28.67,12.76-28.91,28.35-.25,16.59,12.33,29.59,28.75,29.73Z"/>
      <path class="cls-2" d="m361.29,258.72c-21.07,0-42.13.02-63.2-.01-7.96-.01-12.39-3.39-12.45-9.29-.06-5.96,4.46-9.69,12.24-9.7,42.36-.05,84.72-.05,127.08,0,7.7.01,12.29,3.91,12.13,9.84-.15,5.68-4.52,9.14-11.92,9.15-21.29.05-42.59.02-63.88.02Z"/>
      <path class="cls-1" d="m361.41,284.28c21.07,0,42.15-.02,63.22.01,7.9.01,12.37,3.45,12.45,9.37.08,5.97-4.44,9.63-12.21,9.64-42.37.03-84.74.03-127.11,0-7.75,0-12.24-3.72-12.09-9.74.14-5.75,4.48-9.25,11.85-9.27,21.3-.05,42.6-.02,63.9-.02Z"/>
      <path class="cls-1" d="m360.87,392.13c-21.52,0-43.04.21-64.55-.23-3.23-.07-7.45-2.49-9.27-5.16-1.43-2.08-1.04-7.27.67-9.18,2.19-2.47,6.48-4.15,9.92-4.25,14.71-.45,29.44-.19,44.17-.19,26.73,0,53.46,0,80.19,0,2.04,0,4.1-.12,6.11.14,5.46.71,8.63,3.94,8.94,9.42.29,5.06-3.83,9.21-9.57,9.34-10.64.25-21.29.12-31.94.13-11.55.01-23.11,0-34.66,0v-.02Z"/>
      <path class="cls-2" d="m361.7,328.78c21.06,0,42.13.03,63.19-.02,5.08-.01,9.52.89,11.51,6.35,1.92,5.25-.87,10.71-6.49,12.11-2.37.59-4.93.57-7.41.57-40.77.03-81.54.02-122.31.02-1.59,0-3.18.06-4.75-.07-5.76-.46-9.32-3.47-9.74-9.34-.38-5.32,3.85-9.47,10.08-9.52,19.93-.18,39.86-.09,59.79-.11,2.04,0,4.08,0,6.12,0Z"/>
      <path class="cls-2" d="m234.64,120.14c.13-15.18,12.34-27.14,27.43-26.86,14.86.27,26.75,12.2,26.85,26.94.1,15.21-12.56,27.53-27.95,27.2-14.81-.32-26.46-12.39-26.33-27.27Zm26.49,8.11c5.37-.11,8.45-2.93,8.55-7.81.1-4.91-2.96-8.04-8.02-8.06-4.66-.02-7.64,2.6-7.88,7.41-.25,5.13,2.64,7.8,7.35,8.46Z"/>
    </g>
  </g>
</svg>