<?xml version="1.0" encoding="UTF-8"?>
<svg id="Layer_1" data-name="Layer 1" xmlns="http://www.w3.org/2000/svg" viewBox="0 0 510.46 512.09">
  <defs>
    <style>
      .cls-1 {
        fill: #dfaa1e;
      }

      .cls-2 {
        fill: #142e62;
        stroke: #142e62;
        stroke-miterlimit: 10;
        stroke-width: 12px;
      }
    </style>
  </defs>
  <g id="vehicle_entry" data-name="vehicle entry">
    <path class="cls-2" d="m258.15,65.05c44.7,0,89.4,0,134.1,0,23.73,0,37.65,11.28,44.53,33.92,4.65,15.3,11.15,30.03,16.76,45.04,5.48,14.67,11.36,29.22,16.17,44.11,3.05,9.44,9.71,15.71,16.16,22.31,11.11,11.36,16.91,24.94,16.95,40.73.14,51.51.13,103.02.02,154.54-.05,23.64-17.72,41.08-41.25,41.16-8.16.03-16.33.14-24.49-.02-22.8-.45-41.41-17.6-40.81-40.85.15-5.83.14-11.67-.02-17.49-.19-7.24-3.44-10.05-10.67-9.67-2.52.13-5.05.14-7.57.14-83.57,0-167.13,0-250.7,0-1.94,0-3.89-.08-5.83.05-6.31.45-8.12,2.29-8.38,8.74-.28,7.17-.34,14.36-.58,21.53-.75,22.08-19.46,36.87-39.86,37.52-8.35.27-16.71.06-25.07.04-23.2-.06-41.26-17.22-41.4-40.5-.31-50.93-.21-101.86,0-152.79.07-17.33,8.12-31.16,20.66-42.63,1.29-1.18,2.47-2.52,3.92-3.46,13.16-8.46,16.7-22.66,21.65-36.04,10.33-27.91,20.59-55.84,31.1-83.68,5.08-13.44,20.91-22.69,38.19-22.7,45.48-.04,90.95-.01,136.43-.02Zm-4.31,305.14c55.76,0,111.51,0,167.27,0,13.79,0,27.59-.18,41.38.04,17.58.28,31.99-14.38,31.44-31.48-.99-30.86-.27-61.78-.39-92.68-.01-2.82-.75-5.68-1.42-8.46-2.92-12.13-11.87-20.14-19.7-28.99-4.06-4.59-8.53-6.48-14.71-6.46-63.91.18-127.83.11-191.75.11-69.94,0-139.88-.06-209.81.16-3.95.01-8.67,1.39-11.68,3.81-6.17,4.95-11.51,10.97-17.05,16.68-8.06,8.31-12.03,18.49-12.11,29.9-.22,29.53-.3,59.08.14,88.6.08,5.1,2.1,10.7,4.79,15.13,6.2,10.22,16.28,13.67,27.87,13.66,68.58-.04,137.16-.02,205.73-.02Zm4.05-296.21c-46.23,0-92.46-.11-138.69.06-16.93.06-25.2,9.49-29.89,21.58-6.98,17.99-13.39,36.2-20.04,54.32-3.99,10.87-8.12,21.69-11.88,32.64-2.31,6.72.41,10.41,7.54,11.01,1.54.13,3.11.04,4.66.04,68.18,0,136.36,0,204.55,0,1.36,0,2.73.08,4.08-.02,4.69-.33,7.54-2.01,8.7-7.39,3.22-14.85,9.88-27.99,21.43-38.37,23.29-20.94,56.4-24,82.8-6.88,15.97,10.36,26.31,24.92,29.39,44.09.91,5.63,3.84,8.37,9.89,8.53,6.41.17,12.82.14,19.23.02,9.1-.16,11.55-4.13,8.32-12.86-7.52-20.28-14.95-40.6-22.41-60.91-3.33-9.06-6.16-18.34-10.1-27.13-4.68-10.45-13.33-18.66-28.3-18.69-46.43-.1-92.85-.04-139.28-.05Zm95.85,119.65c16.31,0,32.62.09,48.93-.04,8.06-.07,10.78-4.12,8.35-11.78-.64-2.02-.99-4.16-1.79-6.11-9.71-23.62-32.62-38.04-58.49-36.87-24.91,1.12-46.56,18.21-53.87,42.51-2.49,8.27.4,12.25,9.1,12.28,15.92.06,31.84.02,47.76.01ZM59.38,437.55s0-.05,0-.07c5.24,0,10.48.22,15.71-.04,14.22-.72,24.5-8.25,27.67-22.06,1.83-7.96,1.34-16.5,1.52-24.78.22-10.12-1.41-11.59-11.76-11.62-12.22-.04-24.44.04-36.66-.02-10.44-.05-20.78-.09-30.55-5.09-5.47-2.8-10.01.66-10.08,6.83-.09,8.53.3,17.09-.08,25.6-.85,19.02,15.1,31.72,30.85,31.27,4.46-.13,8.92-.02,13.38-.02Zm382.48-59.08c0,.08,0,.17,0,.25-9.11,0-18.22.07-27.33-.02-6.49-.07-9.92,3.37-9.85,10.06.05,5.62.06,11.23,0,16.85-.19,15.13,9.77,29.5,23.63,30.86,13.8,1.36,27.93,1.37,41.73.05,13.48-1.28,23.24-13.8,23.59-27.4.24-9.11.27-18.23.17-27.35-.09-7.96-4.49-10.32-11.98-7.2-4.21,1.76-8.74,3.43-13.22,3.72-8.88.58-17.82.17-26.73.17Z"/>
    <path class="cls-1" d="m102.52,259.28c12.62,0,25.25.21,37.87-.1,5.32-.13,7.4,1.87,7.38,6.99-.06,16.71.07,33.41-.03,50.12-.04,6.28-1.88,8-7.88,8-24.86.02-49.72.03-74.58,0-6.85,0-7.77-.94-7.78-7.76-.03-16.71.1-33.41-.08-50.12-.05-5.25,1.94-7.3,7.23-7.2,12.62.23,25.25.07,37.87.07Zm-.12,56.18c9.31,0,18.62.16,27.93-.05,6.76-.16,8.57-2.15,8.64-8.87.09-9.7.07-19.4,0-29.1-.04-7.12-2.52-9.75-9.84-9.8-17.65-.13-35.3-.12-52.95,0-7.22.05-9.93,2.7-10.06,9.82-.18,9.5-.18,19.01.01,28.52.14,7.28,2.25,9.34,9.49,9.47,8.92.16,17.84.04,26.77.02Z"/>
    <path class="cls-1" d="m406.52,259.28c12.62,0,25.25.15,37.87-.07,5.29-.09,7.38,2.14,7.35,7.25-.08,16.9-.08,33.8,0,50.71.02,5.18-2.29,7.22-7.46,7.2-25.25-.13-50.5-.14-75.75,0-5.43.03-7.24-2.51-7.23-7.44.04-16.9.07-33.8-.02-50.71-.03-5.15,2.04-7.17,7.36-7.04,12.62.3,25.25.1,37.87.1Zm-.36,56.2c9.13,0,18.26.12,27.38-.04,6.85-.12,9.35-2.42,9.48-9.02.2-9.9.14-19.81.02-29.72-.07-5.51-3.15-8.92-8.6-8.99-18.64-.21-37.29-.27-55.93.02-6.28.1-8.54,3.05-8.57,9.27-.05,9.52-.04,19.04-.01,28.55.02,7.91,1.83,9.79,10.01,9.91,8.74.13,17.48.03,26.22.02Z"/>
    <path class="cls-1" d="m254.8,270.92c15.73,0,31.47-.02,47.2.02,1.92,0,4.01-.1,5.72.59,1.33.54,2.97,2.2,3.04,3.44.08,1.32-1.24,3.3-2.49,3.95-1.59.83-3.73.79-5.63.8-32.05.04-64.1.03-96.15.01-1.55,0-3.34.32-4.59-.33-1.51-.79-3.71-2.59-3.56-3.69.21-1.63,1.97-3.47,3.55-4.37,1.36-.77,3.4-.42,5.14-.42,15.93-.02,31.86-.01,47.79-.01Z"/>
    <path class="cls-1" d="m255.02,304.88c15.94,0,31.87,0,47.81,0,1.36,0,2.98-.42,4.02.16,1.69.94,3,2.55,4.47,3.88-1.35,1.4-2.47,3.4-4.12,4.05-2.07.82-4.58.7-6.9.7-30.51.04-61.02.03-91.53,0-2.13,0-4.49.2-6.31-.64-1.75-.81-2.94-2.84-4.38-4.34,1.68-1.27,3.21-3.14,5.09-3.65,2.35-.64,5.01-.17,7.54-.17,14.77,0,29.54,0,44.31,0Z"/>
  </g>
</svg>